<svg width="144" height="144" viewBox="0 0 144 144" fill="none" xmlns="http://www.w3.org/2000/svg">
<path d="M72 144C32.2355 144 -1.40906e-06 111.765 -3.14722e-06 72V72C-4.88538e-06 32.2355 32.2355 -1.40906e-06 72 -3.14722e-06V-3.14722e-06C111.764 -4.88538e-06 144 32.2355 144 72V72C144 111.764 111.765 144 72 144V144Z" fill="#E0FF22"/>
<path d="M73.5463 107.542L76.9359 104.152L85.0254 96.0627L94.8516 86.2365L103.299 77.7891C104.67 76.418 106.064 75.0697 107.412 73.6758L107.473 73.6149C108.349 72.7389 108.349 71.2611 107.473 70.3852L104.084 66.9955L95.9941 58.9061L86.168 49.0799L77.7205 40.6324C76.3494 39.2613 75.0012 37.8674 73.6072 36.5191L73.5463 36.4582C72.7008 35.6127 71.1469 35.5518 70.3166 36.4582C69.4787 37.3723 69.4102 38.7891 70.3166 39.6879L73.7063 43.0775L81.7957 51.167L91.6219 60.9932L100.069 69.4406C101.44 70.8117 102.781 72.2133 104.183 73.5539L104.244 73.6149V70.3852L100.854 73.7748L92.7645 81.8643L82.9383 91.6904L74.4908 100.138C73.1197 101.509 71.7258 102.857 70.3775 104.251L70.3166 104.312C69.4711 105.158 69.4102 106.712 70.3166 107.542C71.2231 108.38 72.6398 108.448 73.5463 107.542Z" fill="#130E5B"/>
<path d="M105.874 69.7148H40.8837C40.0077 69.7148 39.1241 69.7072 38.2481 69.7148H38.1339C36.938 69.7148 35.7954 70.766 35.8487 72C35.902 73.2416 36.8542 74.2851 38.1339 74.2851H103.124C104 74.2851 104.883 74.2927 105.759 74.2851H105.874C107.069 74.2851 108.212 73.234 108.159 72C108.098 70.7584 107.153 69.7148 105.874 69.7148Z" fill="#130E5B"/>
</svg>
