<svg width="52" height="60" viewBox="0 0 52 60" fill="none" xmlns="http://www.w3.org/2000/svg">
<path d="M29.9649 36.341H27.4024C26.273 36.3383 25.1674 35.9739 24.2135 35.2898C23.2596 34.6057 22.4965 33.63 22.0125 32.4756H27.4024C27.6289 32.4756 27.8462 32.3738 28.0064 32.1926C28.1666 32.0113 28.2566 31.7655 28.2566 31.5093C28.2566 31.253 28.1666 31.0072 28.0064 30.8259C27.8462 30.6447 27.6289 30.5429 27.4024 30.5429H21.4914C21.4003 29.9028 21.4003 29.2503 21.4914 28.6102H27.4024C27.6289 28.6102 27.8462 28.5084 28.0064 28.3272C28.1666 28.1459 28.2565 27.9001 28.2565 27.6438C28.2565 27.3876 28.1666 27.1418 28.0064 26.9605C27.8462 26.7793 27.6289 26.6775 27.4024 26.6775H22.0125C22.4965 25.5231 23.2596 24.5474 24.2135 23.8633C25.1674 23.1792 26.273 22.8148 27.4024 22.8121H29.9649C30.1915 22.8121 30.4087 22.7103 30.5689 22.5291C30.7291 22.3478 30.8191 22.102 30.8191 21.8457C30.8191 21.5895 30.7291 21.3437 30.5689 21.1624C30.4087 20.9812 30.1915 20.8794 29.9649 20.8794H27.4024C25.8148 20.8824 24.2671 21.4414 22.9716 22.4796C21.6762 23.5178 20.6966 24.9842 20.1674 26.6775H18.0063C17.7798 26.6775 17.5625 26.7793 17.4023 26.9605C17.2421 27.1418 17.1521 27.3876 17.1521 27.6438C17.1521 27.9001 17.2421 28.1459 17.4023 28.3272C17.5625 28.5084 17.7798 28.6102 18.0063 28.6102H19.766C19.6976 29.2521 19.6976 29.901 19.766 30.5429H18.0068C17.7803 30.5429 17.563 30.6447 17.4028 30.8259C17.2426 31.0072 17.1527 31.253 17.1527 31.5093C17.1527 31.7655 17.2426 32.0113 17.4028 32.1926C17.563 32.3738 17.7803 32.4756 18.0068 32.4756H20.1674C20.6966 34.1689 21.6762 35.6353 22.9716 36.6735C24.2671 37.7117 25.8148 38.2707 27.4024 38.2737H29.9649C30.1915 38.2737 30.4087 38.1719 30.5689 37.9907C30.7291 37.8094 30.8191 37.5636 30.8191 37.3074C30.8191 37.0511 30.7291 36.8053 30.5689 36.624C30.4087 36.4428 30.1915 36.341 29.9649 36.341Z" fill="#BEE4FF"/>
<path d="M16.1124 15.8637C11.5511 18.9725 8.55621 24.2093 8.55621 30.1457C8.55621 35.6517 11.1327 40.5559 15.1457 43.7186M19.9538 13.8988C21.7873 13.2357 23.7653 12.8743 25.8276 12.8743C33.3355 12.8743 39.7245 17.6648 42.1047 24.356M43.0294 28.5842C43.0755 29.0985 43.099 29.6193 43.099 30.1457C43.099 39.6844 35.3663 47.4171 25.8276 47.4171C23.3493 47.4171 20.993 46.8951 18.8625 45.9551" stroke="#BEE4FF" stroke-width="1.8" stroke-linecap="round"/>
<path d="M30.1455 54.338L30.6265 55.0987C30.8884 54.9331 31.0467 54.6443 31.0455 54.3344C31.0442 54.0245 30.8836 53.7371 30.6204 53.5735L30.1455 54.338ZM23.88 49.3865C23.4577 49.1242 22.9028 49.2539 22.6405 49.6761C22.3783 50.0983 22.5079 50.6532 22.9302 50.9155L23.88 49.3865ZM22.924 57.8399C22.5039 58.1056 22.3787 58.6615 22.6444 59.0816C22.9101 59.5017 23.466 59.6269 23.8861 59.3613L22.924 57.8399ZM16.4645 8.13544C16.9219 7.94104 17.1352 7.4126 16.9408 6.95514C16.7464 6.49767 16.2179 6.28442 15.7605 6.47882L16.4645 8.13544ZM25.9511 53.7853C12.6589 53.7853 1.9 43.127 1.9 29.9996H0.1C0.1 44.1392 11.683 55.5853 25.9511 55.5853V53.7853ZM29.9968 53.4504C28.6821 53.6706 27.3305 53.7853 25.9511 53.7853V55.5853C27.4305 55.5853 28.8815 55.4622 30.2941 55.2257L29.9968 53.4504ZM22.9302 50.9155L29.6706 55.1025L30.6204 53.5735L23.88 49.3865L22.9302 50.9155ZM23.8861 59.3613L30.6265 55.0987L29.6644 53.5774L22.924 57.8399L23.8861 59.3613ZM1.9 29.9996C1.9 20.2006 7.8929 11.7779 16.4645 8.13544L15.7605 6.47882C6.55619 10.3902 0.1 19.4446 0.1 29.9996H1.9Z" fill="#BEE4FF"/>
<path d="M21.5098 5.26255L21.0288 4.50189C20.7668 4.66753 20.6086 4.95627 20.6098 5.26617C20.611 5.57608 20.7716 5.86354 21.0349 6.02706L21.5098 5.26255ZM27.7753 10.2141C28.1975 10.4764 28.7524 10.3467 29.0147 9.92449C29.277 9.50227 29.1473 8.94736 28.7251 8.68509L27.7753 10.2141ZM28.7313 1.76064C29.1514 1.49497 29.2766 0.939049 29.0109 0.518947C28.7452 0.0988449 28.1893 -0.0263485 27.7692 0.239319L28.7313 1.76064ZM35.1908 51.4651C34.7333 51.6595 34.5201 52.188 34.7145 52.6454C34.9089 53.1029 35.4373 53.3162 35.8948 53.1218L35.1908 51.4651ZM25.7042 5.81526C38.9963 5.81526 49.7553 16.4735 49.7553 29.601H51.5553C51.5553 15.4613 39.9723 4.01526 25.7042 4.01526V5.81526ZM21.6584 6.15019C22.9732 5.93001 24.3248 5.81526 25.7042 5.81526V4.01526C24.2248 4.01526 22.7738 4.13834 21.3611 4.37492L21.6584 6.15019ZM28.7251 8.68509L21.9847 4.49805L21.0349 6.02706L27.7753 10.2141L28.7251 8.68509ZM27.7692 0.239319L21.0288 4.50189L21.9908 6.02322L28.7313 1.76064L27.7692 0.239319ZM49.7553 29.601C49.7553 39.3999 43.7624 47.8227 35.1908 51.4651L35.8948 53.1218C45.0991 49.2104 51.5553 40.156 51.5553 29.601H49.7553Z" fill="#E0FF22"/>
</svg>
