<svg width="52" height="61" viewBox="0 0 52 61" fill="none" xmlns="http://www.w3.org/2000/svg">
<path d="M29.9649 36.9886H27.4023C26.2729 36.9859 25.1673 36.6144 24.2134 35.917C23.2596 35.2196 22.4964 34.2249 22.0124 33.0481H27.4023C27.6289 33.0481 27.8461 32.9443 28.0063 32.7595C28.1665 32.5748 28.2565 32.3242 28.2565 32.0629C28.2565 31.8016 28.1665 31.5511 28.0063 31.3663C27.8461 31.1816 27.6289 31.0778 27.4023 31.0778H21.4914C21.4002 30.4252 21.4002 29.76 21.4914 29.1075H27.4023C27.6289 29.1075 27.8461 29.0037 28.0063 28.8189C28.1665 28.6342 28.2565 28.3836 28.2565 28.1223C28.2565 27.8611 28.1665 27.6105 28.0063 27.4257C27.8461 27.241 27.6289 27.1372 27.4023 27.1372H22.0124C22.4964 25.9603 23.2596 24.9656 24.2134 24.2683C25.1673 23.5709 26.2729 23.1993 27.4023 23.1966H29.9649C30.1914 23.1966 30.4087 23.0928 30.5689 22.9081C30.7291 22.7233 30.8191 22.4727 30.8191 22.2115C30.8191 21.9502 30.7291 21.6996 30.5689 21.5149C30.4087 21.3301 30.1914 21.2263 29.9649 21.2263H27.4023C25.8148 21.2294 24.267 21.7993 22.9716 22.8577C21.6761 23.916 20.6966 25.411 20.1674 27.1372H18.0063C17.7797 27.1372 17.5625 27.241 17.4023 27.4257C17.2421 27.6105 17.1521 27.8611 17.1521 28.1223C17.1521 28.3836 17.2421 28.6342 17.4023 28.8189C17.5625 29.0037 17.7797 29.1075 18.0063 29.1075H19.7659C19.6975 29.7619 19.6975 30.4234 19.7659 31.0778H18.0068C17.7802 31.0778 17.563 31.1816 17.4028 31.3663C17.2426 31.5511 17.1526 31.8016 17.1526 32.0629C17.1526 32.3242 17.2426 32.5748 17.4028 32.7595C17.563 32.9443 17.7802 33.0481 18.0068 33.0481H20.1674C20.6966 34.7743 21.6761 36.2692 22.9716 37.3276C24.267 38.386 25.8148 38.9558 27.4023 38.9589H29.9649C30.1914 38.9589 30.4087 38.8551 30.5689 38.6704C30.7291 38.4856 30.8191 38.2351 30.8191 37.9738C30.8191 37.7125 30.7291 37.4619 30.5689 37.2772C30.4087 37.0924 30.1914 36.9886 29.9649 36.9886Z" fill="#BEE4FF"/>
<path d="M16.1124 16.1132C11.5511 19.2825 8.55615 24.6212 8.55615 30.673C8.55615 36.2861 11.1326 41.2857 15.1457 44.5098M19.9537 14.1101C21.7873 13.4342 23.7652 13.0657 25.8275 13.0657C33.3355 13.0657 39.7245 17.9494 42.1046 24.7707M43.0293 29.0811C43.0754 29.6054 43.0989 30.1364 43.0989 30.673C43.0989 40.3972 35.3663 48.2803 25.8275 48.2803C23.3493 48.2803 20.9929 47.7482 18.8624 46.7899" stroke="#BEE4FF" stroke-width="1.8" stroke-linecap="round"/>
<path d="M30.1455 55.3357L30.6331 56.0922C30.8913 55.9257 31.0467 55.6392 31.0455 55.3321C31.0442 55.025 30.8865 54.7397 30.627 54.5754L30.1455 55.3357ZM23.8866 50.3069C23.4666 50.041 22.9106 50.1658 22.6447 50.5858C22.3788 51.0057 22.5036 51.5617 22.9235 51.8276L23.8866 50.3069ZM22.9174 58.9248C22.4996 59.1941 22.3793 59.7511 22.6486 60.1689C22.918 60.5866 23.4749 60.707 23.8927 60.4376L22.9174 58.9248ZM16.4702 8.21597C16.9263 8.01838 17.1359 7.48847 16.9383 7.03237C16.7407 6.57628 16.2108 6.36671 15.7547 6.5643L16.4702 8.21597ZM25.9511 54.7898C12.6753 54.7898 1.9 43.9329 1.9 30.5239H0.1C0.1 44.9124 11.6667 56.5898 25.9511 56.5898V54.7898ZM29.994 54.4486C28.6801 54.6729 27.3295 54.7898 25.9511 54.7898V56.5898C27.4315 56.5898 28.8834 56.4642 30.2969 56.2229L29.994 54.4486ZM22.9235 51.8276L29.664 56.0961L30.627 54.5754L23.8866 50.3069L22.9235 51.8276ZM23.8927 60.4376L30.6331 56.0922L29.6578 54.5793L22.9174 58.9248L23.8927 60.4376ZM1.9 30.5239C1.9 20.5171 7.90292 11.9275 16.4702 8.21597L15.7547 6.5643C6.54618 10.5536 0.1 19.7811 0.1 30.5239H1.9Z" fill="#BEE4FF"/>
<path d="M21.5098 5.30587L21.0221 4.54944C20.764 4.71585 20.6086 5.0024 20.6098 5.30952C20.611 5.61663 20.7688 5.90191 21.0283 6.06623L21.5098 5.30587ZM27.7687 10.3347C28.1886 10.6006 28.7447 10.4758 29.0106 10.0558C29.2765 9.63591 29.1517 9.07991 28.7317 8.81398L27.7687 10.3347ZM28.7379 1.71682C29.1556 1.44749 29.276 0.890491 29.0067 0.472726C28.7373 0.0549618 28.1803 -0.0653697 27.7626 0.203958L28.7379 1.71682ZM35.185 52.4256C34.7289 52.6232 34.5194 53.1531 34.717 53.6092C34.9146 54.0653 35.4445 54.2749 35.9006 54.0773L35.185 52.4256ZM25.7042 5.85181C38.98 5.85181 49.7553 16.7087 49.7553 30.1177H51.5553C51.5553 15.7292 39.9886 4.05181 25.7042 4.05181V5.85181ZM21.6613 6.19303C22.9751 5.96871 24.3258 5.85181 25.7042 5.85181V4.05181C24.2238 4.05181 22.7718 4.17738 21.3583 4.4187L21.6613 6.19303ZM28.7317 8.81398L21.9913 4.54551L21.0283 6.06623L27.7687 10.3347L28.7317 8.81398ZM27.7626 0.203958L21.0221 4.54944L21.9975 6.0623L28.7379 1.71682L27.7626 0.203958ZM49.7553 30.1177C49.7553 40.1245 43.7524 48.7141 35.185 52.4256L35.9006 54.0773C45.1091 50.088 51.5553 40.8605 51.5553 30.1177H49.7553Z" fill="#E0FF22"/>
</svg>
