<svg width="130" height="130" viewBox="0 0 130 130" fill="none" xmlns="http://www.w3.org/2000/svg">
<circle cx="65" cy="65" r="65" fill="#5350BB"/>
<path d="M78.7366 43.0088C77.9317 43.0088 77.2221 43.3755 76.7252 43.9439C76.6584 43.9568 76.5932 43.9771 76.5309 44.0044L60.8415 50.9773C60.6735 50.7811 60.4655 50.623 60.2315 50.5136C59.9976 50.4042 59.7429 50.346 59.4847 50.3429H44.8165C43.8172 50.3429 42.983 51.1753 42.983 52.1764V54.0099H40.2474C40.0042 54.0099 39.7711 54.1065 39.5991 54.2784C39.4272 54.4503 39.3306 54.6835 39.3306 54.9267V60.4272C39.3306 60.6703 39.4272 60.9035 39.5991 61.0755C39.7711 61.2474 40.0042 61.344 40.2474 61.344H42.983V63.1775C42.983 64.1768 43.8172 65.011 44.8165 65.011H46.65V68.678H49.4003V83.1812C49.4003 84.7397 50.5994 86.0965 52.1506 86.0965C53.7036 86.0965 54.9009 84.7397 54.9009 83.1812V77.8456H58.5679V70.5116H54.9009V68.678H57.6511V65.011H59.4847C59.7423 65.0071 59.9961 64.9486 60.2294 64.8392C60.4627 64.7298 60.67 64.5722 60.8378 64.3766L76.5327 71.3495C76.5945 71.3767 76.659 71.397 76.7252 71.41C77.2221 71.9784 77.9317 72.3451 78.7366 72.3451C80.2804 72.3451 81.4869 71.0139 81.4869 69.4664V63.1665C82.3978 63.168 83.2948 62.9434 84.0974 62.5126C84.9 62.0819 85.5831 61.4585 86.0853 60.6986C86.681 59.7901 86.9948 58.7257 86.9873 57.6394C86.9798 56.553 86.6513 55.4931 86.0432 54.593C85.5377 53.8508 84.8581 53.2438 84.0639 52.8251C83.2696 52.4064 82.3848 52.1887 81.4869 52.191V45.8911C81.4869 44.3436 80.2804 43.0088 78.7366 43.0088ZM78.7366 44.8423C79.2261 44.8423 79.6533 45.2622 79.6533 45.8911V69.4664C79.6533 70.0953 79.2261 70.5116 78.7366 70.5116C78.2489 70.5116 77.8198 70.0953 77.8198 69.4664V45.8911C77.8198 45.2622 78.2489 44.8423 78.7366 44.8423ZM75.9863 46.2541V69.0997L61.3182 62.5834V52.7704L75.9863 46.2541ZM89.1546 50.5464L86.562 53.139L87.8583 54.4353L90.4509 51.8427L89.1546 50.5464ZM44.8165 52.1764H59.4847V54.0099H50.3171V55.8434H59.4847V59.5104H50.3171V61.344H59.4847V63.1775H44.8165V60.5812C44.8257 60.5304 44.8306 60.4789 44.8312 60.4272V54.9267C44.8311 54.8725 44.8262 54.8185 44.8165 54.7653V52.1764ZM81.8426 54.0282C82.4716 54.0888 83.0743 54.311 83.5922 54.6732C84.1101 55.0353 84.5257 55.5251 84.7985 56.0952C85.0713 56.6652 85.1922 57.2961 85.1494 57.9266C85.1067 58.5571 84.9017 59.1658 84.5543 59.6938C83.8649 60.7389 82.7062 61.3055 81.4869 61.3036V54.0447C81.606 54.0447 81.7252 54.0191 81.8426 54.0282ZM41.1641 55.8434H42.983V59.5104H41.1641V55.8434ZM88.8209 56.7602V58.5937H92.488V56.7602H88.8209ZM87.8583 60.9168L86.562 62.2131L89.1546 64.8075L90.4509 63.5112L87.8583 60.9168ZM48.4835 65.011H55.8176V66.8445H48.4835V65.011ZM51.2338 68.6854H53.0673V83.1812C53.0673 83.8376 52.631 84.2629 52.1506 84.2629C51.672 84.2629 51.2338 83.8376 51.2338 83.1812V68.6854ZM54.9009 72.3451H56.7344V76.0121H54.9009V72.3451Z" fill="white"/>
</svg>
