<svg width="52" height="61" viewBox="0 0 52 61" fill="none" xmlns="http://www.w3.org/2000/svg">
<path d="M29.9651 37.3021H27.4026C26.2732 37.2994 25.1676 36.9308 24.2137 36.2389C23.2598 35.5471 22.4967 34.5603 22.0127 33.3928H27.4026C27.6291 33.3928 27.8464 33.2898 28.0066 33.1066C28.1668 32.9233 28.2567 32.6747 28.2567 32.4155C28.2567 32.1563 28.1668 31.9077 28.0066 31.7244C27.8464 31.5411 27.6291 31.4382 27.4026 31.4382H21.4916C21.4005 30.7908 21.4005 30.1309 21.4916 29.4835H27.4026C27.6291 29.4835 27.8464 29.3806 28.0066 29.1973C28.1668 29.014 28.2567 28.7654 28.2567 28.5062C28.2567 28.247 28.1668 27.9985 28.0066 27.8152C27.8464 27.6319 27.6291 27.5289 27.4026 27.5289H22.0127C22.4967 26.3614 23.2598 25.3746 24.2137 24.6828C25.1676 23.991 26.2732 23.6224 27.4026 23.6197H29.9651C30.1917 23.6197 30.4089 23.5167 30.5691 23.3334C30.7293 23.1501 30.8193 22.9016 30.8193 22.6424C30.8193 22.3832 30.7293 22.1346 30.5691 21.9513C30.4089 21.768 30.1917 21.665 29.9651 21.665H27.4026C25.815 21.6681 24.2673 22.2335 22.9718 23.2834C21.6764 24.3334 20.6968 25.8164 20.1676 27.5289H18.0065C17.78 27.5289 17.5627 27.6319 17.4025 27.8152C17.2423 27.9985 17.1523 28.247 17.1523 28.5062C17.1523 28.7654 17.2423 29.014 17.4025 29.1973C17.5627 29.3806 17.78 29.4835 18.0065 29.4835H19.7662C19.6978 30.1327 19.6978 30.789 19.7662 31.4382H18.007C17.7805 31.4382 17.5632 31.5411 17.403 31.7244C17.2428 31.9077 17.1529 32.1563 17.1529 32.4155C17.1529 32.6747 17.2428 32.9233 17.403 33.1066C17.5632 33.2898 17.7805 33.3928 18.007 33.3928H20.1676C20.6968 35.1053 21.6764 36.5884 22.9718 37.6383C24.2673 38.6883 25.815 39.2536 27.4026 39.2567H29.9651C30.1917 39.2567 30.4089 39.1537 30.5691 38.9704C30.7293 38.7872 30.8193 38.5386 30.8193 38.2794C30.8193 38.0202 30.7293 37.7716 30.5691 37.5883C30.4089 37.405 30.1917 37.3021 29.9651 37.3021Z" fill="#BEE4FF"/>
<path d="M16.1124 16.5925C11.5511 19.7366 8.55615 25.0329 8.55615 31.0365C8.55615 36.605 11.1326 41.5649 15.1457 44.7634M19.9537 14.6053C21.7873 13.9348 23.7652 13.5692 25.8275 13.5692C33.3355 13.5692 39.7245 18.4141 42.1046 25.1812M43.0293 29.4573C43.0754 29.9775 43.0989 30.5042 43.0989 31.0365C43.0989 40.6835 35.3663 48.5039 25.8275 48.5039C23.3493 48.5039 20.9929 47.976 18.8624 47.0253" stroke="#BEE4FF" stroke-width="1.8" stroke-linecap="round"/>
<path d="M30.1455 55.5033L30.6304 56.2615C30.8901 56.0954 31.0467 55.8079 31.0455 55.4997C31.0442 55.1914 30.8853 54.9052 30.6242 54.7412L30.1455 55.5033ZM23.8838 50.5067C23.4629 50.2423 22.9074 50.3691 22.643 50.79C22.3785 51.2109 22.5054 51.7664 22.9263 52.0309L23.8838 50.5067ZM22.9201 59.056C22.5014 59.3239 22.379 59.8804 22.6469 60.2991C22.9147 60.7179 23.4712 60.8402 23.89 60.5724L22.9201 59.056ZM16.4678 8.76571C16.9245 8.56945 17.1356 8.04015 16.9393 7.58348C16.7431 7.12681 16.2138 6.91571 15.7571 7.11197L16.4678 8.76571ZM25.9511 54.9545C12.6685 54.9545 1.9 44.1804 1.9 30.8887H0.1C0.1 45.1735 11.6734 56.7545 25.9511 56.7545V54.9545ZM29.9952 54.6159C28.6809 54.8385 27.3299 54.9545 25.9511 54.9545V56.7545C27.431 56.7545 28.8826 56.63 30.2958 56.3907L29.9952 54.6159ZM22.9263 52.0309L29.6667 56.2654L30.6242 54.7412L23.8838 50.5067L22.9263 52.0309ZM23.89 60.5724L30.6304 56.2615L29.6606 54.7451L22.9201 59.056L23.89 60.5724ZM1.9 30.8887C1.9 20.9685 7.8988 12.4484 16.4678 8.76571L15.7571 7.11197C6.55029 11.0688 0.1 20.2242 0.1 30.8887H1.9Z" fill="#BEE4FF"/>
<path d="M21.5098 5.87109L21.0249 5.11289C20.7652 5.27899 20.6086 5.56645 20.6098 5.87472C20.611 6.183 20.77 6.46918 21.031 6.63318L21.5098 5.87109ZM27.7715 10.8677C28.1923 11.1321 28.7479 11.0053 29.0123 10.5844C29.2767 10.1635 29.1499 9.60795 28.729 9.34354L27.7715 10.8677ZM28.7351 2.31835C29.1539 2.05054 29.2762 1.49398 29.0084 1.07524C28.7406 0.656501 28.184 0.534149 27.7653 0.80196L28.7351 2.31835ZM35.1874 52.6087C34.7308 52.8049 34.5197 53.3342 34.7159 53.7909C34.9122 54.2476 35.4415 54.4587 35.8982 54.2624L35.1874 52.6087ZM25.7042 6.41984C38.9867 6.41984 49.7553 17.194 49.7553 30.4856H51.5553C51.5553 16.2009 39.9818 4.61984 25.7042 4.61984V6.41984ZM21.6601 6.75845C22.9743 6.53585 24.3254 6.41984 25.7042 6.41984V4.61984C24.2242 4.61984 22.7726 4.74438 21.3595 4.98372L21.6601 6.75845ZM28.729 9.34354L21.9886 5.109L21.031 6.63318L27.7715 10.8677L28.729 9.34354ZM27.7653 0.80196L21.0249 5.11289L21.9947 6.62928L28.7351 2.31835L27.7653 0.80196ZM49.7553 30.4856C49.7553 40.4059 43.7565 48.9259 35.1874 52.6087L35.8982 54.2624C45.105 50.3056 51.5553 41.1502 51.5553 30.4856H49.7553Z" fill="#E0FF22"/>
</svg>
