<svg width="52" height="60" viewBox="0 0 52 60" fill="none" xmlns="http://www.w3.org/2000/svg">
<path d="M29.9649 36.5407H27.4023C26.2729 36.5381 25.1673 36.1736 24.2134 35.4895C23.2596 34.8054 22.4964 33.8297 22.0124 32.6753H27.4023C27.6289 32.6753 27.8461 32.5735 28.0063 32.3923C28.1665 32.211 28.2565 31.9653 28.2565 31.709C28.2565 31.4527 28.1665 31.2069 28.0063 31.0256C27.8461 30.8444 27.6289 30.7426 27.4023 30.7426H21.4914C21.4002 30.1025 21.4002 29.45 21.4914 28.8099H27.4023C27.6289 28.8099 27.8461 28.7081 28.0063 28.5269C28.1665 28.3456 28.2565 28.0998 28.2565 27.8436C28.2565 27.5873 28.1665 27.3415 28.0063 27.1602C27.8461 26.979 27.6289 26.8772 27.4023 26.8772H22.0124C22.4964 25.7228 23.2596 24.7471 24.2134 24.063C25.1673 23.3789 26.2729 23.0145 27.4023 23.0118H29.9649C30.1914 23.0118 30.4087 22.91 30.5689 22.7288C30.7291 22.5475 30.8191 22.3017 30.8191 22.0455C30.8191 21.7892 30.7291 21.5434 30.5689 21.3621C30.4087 21.1809 30.1914 21.0791 29.9649 21.0791H27.4023C25.8148 21.0822 24.267 21.6411 22.9716 22.6793C21.6761 23.7175 20.6966 25.1839 20.1674 26.8772H18.0063C17.7797 26.8772 17.5625 26.979 17.4023 27.1602C17.2421 27.3415 17.1521 27.5873 17.1521 27.8436C17.1521 28.0998 17.2421 28.3456 17.4023 28.5269C17.5625 28.7081 17.7797 28.8099 18.0063 28.8099H19.7659C19.6975 29.4518 19.6975 30.1007 19.7659 30.7426H18.0068C17.7802 30.7426 17.563 30.8444 17.4028 31.0256C17.2426 31.2069 17.1526 31.4527 17.1526 31.709C17.1526 31.9653 17.2426 32.211 17.4028 32.3923C17.563 32.5735 17.7802 32.6753 18.0068 32.6753H20.1674C20.6966 34.3686 21.6761 35.835 22.9716 36.8732C24.267 37.9114 25.8148 38.4704 27.4023 38.4734H29.9649C30.1914 38.4734 30.4087 38.3716 30.5689 38.1904C30.7291 38.0092 30.8191 37.7634 30.8191 37.5071C30.8191 37.2508 30.7291 37.005 30.5689 36.8238C30.4087 36.6425 30.1914 36.5407 29.9649 36.5407Z" fill="#BEE4FF"/>
<path d="M16.1124 16.0636C11.5511 19.1724 8.55615 24.4093 8.55615 30.3456C8.55615 35.8516 11.1326 40.7559 15.1457 43.9185M19.9537 14.0987C21.7873 13.4357 23.7652 13.0742 25.8275 13.0742C33.3355 13.0742 39.7245 17.8648 42.1046 24.556M43.0293 28.7841C43.0754 29.2984 43.0989 29.8193 43.0989 30.3456C43.0989 39.8843 35.3663 47.617 25.8275 47.617C23.3493 47.617 20.9929 47.095 18.8624 46.155" stroke="#BEE4FF" stroke-width="1.8" stroke-linecap="round"/>
<path d="M30.1455 54.5377L30.6265 55.2984C30.8884 55.1328 31.0467 54.844 31.0455 54.5341C31.0442 54.2242 30.8836 53.9368 30.6204 53.7732L30.1455 54.5377ZM23.88 49.5862C23.4577 49.3239 22.9028 49.4536 22.6405 49.8758C22.3783 50.298 22.5079 50.8529 22.9302 51.1152L23.88 49.5862ZM22.924 58.0397C22.5039 58.3053 22.3787 58.8612 22.6444 59.2813C22.9101 59.7014 23.466 59.8266 23.8861 59.561L22.924 58.0397ZM16.4645 8.33515C16.9219 8.14075 17.1352 7.61231 16.9408 7.15484C16.7464 6.69738 16.2179 6.48412 15.7605 6.67852L16.4645 8.33515ZM25.9511 53.985C12.6589 53.985 1.9 43.3267 1.9 30.1993H0.1C0.1 44.339 11.683 55.785 25.9511 55.785V53.985ZM29.9968 53.6501C28.6821 53.8703 27.3305 53.985 25.9511 53.985V55.785C27.4305 55.785 28.8815 55.662 30.2941 55.4254L29.9968 53.6501ZM22.9302 51.1152L29.6706 55.3022L30.6204 53.7732L23.88 49.5862L22.9302 51.1152ZM23.8861 59.561L30.6265 55.2984L29.6644 53.7771L22.924 58.0397L23.8861 59.561ZM1.9 30.1993C1.9 20.4004 7.8929 11.9776 16.4645 8.33515L15.7605 6.67852C6.55619 10.5899 0.1 19.6443 0.1 30.1993H1.9Z" fill="#BEE4FF"/>
<path d="M21.5098 5.46226L21.0288 4.7016C20.7668 4.86724 20.6086 5.15598 20.6098 5.46588C20.611 5.77578 20.7716 6.06324 21.0349 6.22677L21.5098 5.46226ZM27.7753 10.4138C28.1975 10.6761 28.7524 10.5464 29.0147 10.1242C29.277 9.70197 29.1473 9.14707 28.7251 8.88479L27.7753 10.4138ZM28.7313 1.96035C29.1514 1.69468 29.2766 1.13876 29.0109 0.718654C28.7452 0.298552 28.1893 0.173359 27.7692 0.439026L28.7313 1.96035ZM35.1908 51.6649C34.7333 51.8593 34.5201 52.3877 34.7145 52.8452C34.9089 53.3026 35.4373 53.5159 35.8948 53.3215L35.1908 51.6649ZM25.7042 6.01496C38.9963 6.01496 49.7553 16.6733 49.7553 29.8007H51.5553C51.5553 15.661 39.9723 4.21496 25.7042 4.21496V6.01496ZM21.6584 6.3499C22.9732 6.12972 24.3248 6.01496 25.7042 6.01496V4.21496C24.2248 4.21496 22.7738 4.33805 21.3611 4.57462L21.6584 6.3499ZM28.7251 8.88479L21.9847 4.69775L21.0349 6.22677L27.7753 10.4138L28.7251 8.88479ZM27.7692 0.439026L21.0288 4.7016L21.9908 6.22292L28.7313 1.96035L27.7692 0.439026ZM49.7553 29.8007C49.7553 39.5996 43.7624 48.0224 35.1908 51.6649L35.8948 53.3215C45.0991 49.4101 51.5553 40.3557 51.5553 29.8007H49.7553Z" fill="#E0FF22"/>
</svg>
