<svg width="17" height="17" viewBox="0 0 17 17" fill="none" xmlns="http://www.w3.org/2000/svg">
<ellipse cx="8.38551" cy="8.50564" rx="7.19663" ry="7.52375" transform="rotate(-90 8.38551 8.50564)" fill="#DCC381"/>
<circle cx="8.71299" cy="8.50564" r="7.19663" transform="rotate(-90 8.71299 8.50564)" fill="#FFDF8E"/>
<ellipse cx="8.5" cy="8.50017" rx="5.85071" ry="6.16984" transform="rotate(135 8.5 8.50017)" fill="#E4B437"/>
<ellipse cx="8.27358" cy="8.2749" rx="5.85071" ry="5.85071" transform="rotate(135 8.27358 8.2749)" fill="#FFD464"/>
<path d="M10.1297 11.3647H9.14834C8.71583 11.3635 8.29241 11.2036 7.92712 10.9034C7.56182 10.6032 7.26957 10.175 7.08421 9.66848H9.14834C9.23509 9.66848 9.3183 9.62381 9.37964 9.54428C9.44099 9.46476 9.47546 9.3569 9.47546 9.24444C9.47546 9.13198 9.44099 9.02412 9.37964 8.94459C9.3183 8.86507 9.23509 8.8204 9.14834 8.8204H6.88467C6.84978 8.53951 6.84978 8.25319 6.88467 7.97231H9.14834C9.23509 7.97231 9.3183 7.92763 9.37964 7.84811C9.44099 7.76858 9.47546 7.66073 9.47546 7.54826C9.47546 7.4358 9.44099 7.32794 9.37964 7.24842C9.3183 7.1689 9.23509 7.12422 9.14834 7.12422H7.08421C7.26957 6.61766 7.56182 6.1895 7.92712 5.88932C8.29241 5.58914 8.71583 5.42921 9.14834 5.42804H10.1297C10.2165 5.42804 10.2997 5.38337 10.361 5.30384C10.4224 5.22432 10.4568 5.11646 10.4568 5.004C10.4568 4.89154 10.4224 4.78368 10.361 4.70416C10.2997 4.62463 10.2165 4.57996 10.1297 4.57996H9.14834C8.54037 4.58129 7.94763 4.82659 7.45153 5.28215C6.95543 5.73771 6.58029 6.38119 6.37763 7.12422H5.55002C5.46326 7.12422 5.38006 7.1689 5.31871 7.24842C5.25736 7.32794 5.2229 7.4358 5.2229 7.54826C5.2229 7.66073 5.25736 7.76858 5.31871 7.84811C5.38006 7.92763 5.46326 7.97231 5.55002 7.97231H6.22389C6.19771 8.25398 6.19771 8.53872 6.22389 8.8204H5.55021C5.46346 8.8204 5.38025 8.86507 5.31891 8.94459C5.25756 9.02412 5.22309 9.13198 5.22309 9.24444C5.22309 9.3569 5.25756 9.46476 5.31891 9.54428C5.38025 9.62381 5.46346 9.66848 5.55021 9.66848H6.37763C6.58029 10.4115 6.95543 11.055 7.45153 11.5106C7.94763 11.9661 8.54037 12.2114 9.14834 12.2127H10.1297C10.2165 12.2127 10.2997 12.1681 10.361 12.0885C10.4224 12.009 10.4568 11.9012 10.4568 11.7887C10.4568 11.6762 10.4224 11.5684 10.361 11.4889C10.2997 11.4093 10.2165 11.3647 10.1297 11.3647Z" fill="#F2B150"/>
</svg>
