<svg width="52" height="60" viewBox="0 0 52 60" fill="none" xmlns="http://www.w3.org/2000/svg">
<path d="M29.9651 36.341H27.4026C26.2732 36.3383 25.1676 35.9739 24.2137 35.2898C23.2598 34.6057 22.4967 33.63 22.0127 32.4756H27.4026C27.6291 32.4756 27.8464 32.3738 28.0066 32.1926C28.1668 32.0113 28.2567 31.7655 28.2567 31.5093C28.2567 31.253 28.1668 31.0072 28.0066 30.8259C27.8464 30.6447 27.6291 30.5429 27.4026 30.5429H21.4916C21.4005 29.9028 21.4005 29.2503 21.4916 28.6102H27.4026C27.6291 28.6102 27.8464 28.5084 28.0066 28.3272C28.1668 28.1459 28.2567 27.9001 28.2567 27.6438C28.2567 27.3876 28.1668 27.1418 28.0066 26.9605C27.8464 26.7793 27.6291 26.6775 27.4026 26.6775H22.0127C22.4967 25.5231 23.2598 24.5474 24.2137 23.8633C25.1676 23.1792 26.2732 22.8148 27.4026 22.8121H29.9651C30.1917 22.8121 30.4089 22.7103 30.5691 22.5291C30.7293 22.3478 30.8193 22.102 30.8193 21.8457C30.8193 21.5895 30.7293 21.3437 30.5691 21.1624C30.4089 20.9812 30.1917 20.8794 29.9651 20.8794H27.4026C25.815 20.8824 24.2673 21.4414 22.9718 22.4796C21.6764 23.5178 20.6968 24.9842 20.1676 26.6775H18.0065C17.78 26.6775 17.5627 26.7793 17.4025 26.9605C17.2423 27.1418 17.1523 27.3876 17.1523 27.6438C17.1523 27.9001 17.2423 28.1459 17.4025 28.3272C17.5627 28.5084 17.78 28.6102 18.0065 28.6102H19.7662C19.6978 29.2521 19.6978 29.901 19.7662 30.5429H18.007C17.7805 30.5429 17.5632 30.6447 17.403 30.8259C17.2428 31.0072 17.1529 31.253 17.1529 31.5093C17.1529 31.7655 17.2428 32.0113 17.403 32.1926C17.5632 32.3738 17.7805 32.4756 18.007 32.4756H20.1676C20.6968 34.1689 21.6764 35.6353 22.9718 36.6735C24.2673 37.7117 25.815 38.2707 27.4026 38.2737H29.9651C30.1917 38.2737 30.4089 38.1719 30.5691 37.9907C30.7293 37.8094 30.8193 37.5636 30.8193 37.3074C30.8193 37.0511 30.7293 36.8053 30.5691 36.624C30.4089 36.4428 30.1917 36.341 29.9651 36.341Z" fill="#BEE4FF"/>
<path d="M16.1124 15.8637C11.5511 18.9725 8.55615 24.2093 8.55615 30.1457C8.55615 35.6517 11.1326 40.5559 15.1457 43.7186M19.9537 13.8988C21.7873 13.2357 23.7652 12.8743 25.8275 12.8743C33.3355 12.8743 39.7245 17.6648 42.1046 24.356M43.0293 28.5842C43.0754 29.0985 43.0989 29.6193 43.0989 30.1457C43.0989 39.6844 35.3663 47.4171 25.8275 47.4171C23.3493 47.4171 20.9929 46.8951 18.8624 45.9551" stroke="#BEE4FF" stroke-width="1.8" stroke-linecap="round"/>
<path d="M30.1455 54.338L30.6265 55.0987C30.8884 54.9331 31.0467 54.6443 31.0455 54.3344C31.0442 54.0245 30.8836 53.7371 30.6204 53.5735L30.1455 54.338ZM23.88 49.3865C23.4577 49.1242 22.9028 49.2539 22.6405 49.6761C22.3783 50.0983 22.5079 50.6532 22.9302 50.9155L23.88 49.3865ZM22.924 57.8399C22.5039 58.1056 22.3787 58.6615 22.6444 59.0816C22.9101 59.5017 23.466 59.6269 23.8861 59.3613L22.924 57.8399ZM16.4645 8.13544C16.9219 7.94104 17.1352 7.4126 16.9408 6.95514C16.7464 6.49767 16.2179 6.28442 15.7605 6.47882L16.4645 8.13544ZM25.9511 53.7853C12.6589 53.7853 1.9 43.127 1.9 29.9996H0.1C0.1 44.1392 11.683 55.5853 25.9511 55.5853V53.7853ZM29.9968 53.4504C28.6821 53.6706 27.3305 53.7853 25.9511 53.7853V55.5853C27.4305 55.5853 28.8815 55.4622 30.2941 55.2257L29.9968 53.4504ZM22.9302 50.9155L29.6706 55.1025L30.6204 53.5735L23.88 49.3865L22.9302 50.9155ZM23.8861 59.3613L30.6265 55.0987L29.6644 53.5774L22.924 57.8399L23.8861 59.3613ZM1.9 29.9996C1.9 20.2006 7.8929 11.7779 16.4645 8.13544L15.7605 6.47882C6.55619 10.3902 0.1 19.4446 0.1 29.9996H1.9Z" fill="#BEE4FF"/>
<path d="M21.5098 5.26255L21.0288 4.50189C20.7668 4.66753 20.6086 4.95627 20.6098 5.26617C20.611 5.57608 20.7716 5.86354 21.0349 6.02706L21.5098 5.26255ZM27.7753 10.2141C28.1975 10.4764 28.7524 10.3467 29.0147 9.92449C29.277 9.50227 29.1473 8.94736 28.7251 8.68509L27.7753 10.2141ZM28.7313 1.76064C29.1514 1.49497 29.2766 0.939049 29.0109 0.518947C28.7452 0.0988449 28.1893 -0.0263485 27.7692 0.239319L28.7313 1.76064ZM35.1908 51.4651C34.7333 51.6595 34.5201 52.188 34.7145 52.6454C34.9089 53.1029 35.4373 53.3162 35.8948 53.1218L35.1908 51.4651ZM25.7042 5.81526C38.9963 5.81526 49.7553 16.4735 49.7553 29.601H51.5553C51.5553 15.4613 39.9723 4.01526 25.7042 4.01526V5.81526ZM21.6584 6.15019C22.9732 5.93001 24.3248 5.81526 25.7042 5.81526V4.01526C24.2248 4.01526 22.7738 4.13834 21.3611 4.37492L21.6584 6.15019ZM28.7251 8.68509L21.9847 4.49805L21.0349 6.02706L27.7753 10.2141L28.7251 8.68509ZM27.7692 0.239319L21.0288 4.50189L21.9908 6.02322L28.7313 1.76064L27.7692 0.239319ZM49.7553 29.601C49.7553 39.3999 43.7624 47.8227 35.1908 51.4651L35.8948 53.1218C45.0991 49.2104 51.5553 40.156 51.5553 29.601H49.7553Z" fill="#E0FF22"/>
</svg>
