<svg width="130" height="130" viewBox="0 0 130 130" fill="none" xmlns="http://www.w3.org/2000/svg">
<circle cx="65" cy="65" r="65" fill="#8AC9C1"/>
<path d="M65 77.6875C66.7924 77.6875 68.5445 77.156 70.0349 76.1602C71.5252 75.1644 72.6867 73.749 73.3727 72.0931C74.0586 70.4371 74.238 68.615 73.8884 66.857C73.5387 65.099 72.6756 63.4843 71.4082 62.2168C70.1407 60.9494 68.526 60.0863 66.768 59.7366C65.0101 59.387 63.1879 59.5664 61.5319 60.2523C59.876 60.9383 58.4606 62.0998 57.4648 63.5901C56.469 65.0805 55.9375 66.8326 55.9375 68.625C55.9401 71.0277 56.8958 73.3313 58.5948 75.0302C60.2937 76.7292 62.5973 77.6849 65 77.6875ZM65 61.375C66.4339 61.375 67.8356 61.8002 69.0279 62.5969C70.2201 63.3935 71.1494 64.5258 71.6981 65.8506C72.2469 67.1753 72.3904 68.633 72.1107 70.0394C71.831 71.4458 71.1405 72.7376 70.1265 73.7515C69.1126 74.7655 67.8208 75.456 66.4144 75.7357C65.008 76.0154 63.5503 75.8719 62.2255 75.3231C60.9008 74.7744 59.7685 73.8451 58.9718 72.6529C58.1752 71.4606 57.75 70.0589 57.75 68.625C57.7522 66.7028 58.5167 64.86 59.8759 63.5009C61.235 62.1417 63.0778 61.3772 65 61.375Z" fill="#1E1E1E"/>
<path d="M65 71.3438C64.7596 71.3438 64.5291 71.2483 64.3592 71.0783C64.1892 70.9084 64.0938 70.6779 64.0938 70.4375C64.0938 70.1971 63.9983 69.9666 63.8283 69.7967C63.6584 69.6267 63.4279 69.5312 63.1875 69.5312C62.9471 69.5312 62.7166 69.6267 62.5467 69.7967C62.3767 69.9666 62.2812 70.1971 62.2812 70.4375C62.2836 70.9978 62.459 71.5437 62.7834 72.0005C63.1078 72.4573 63.5655 72.8027 64.0938 72.9895V74.0625C64.0938 74.3029 64.1892 74.5334 64.3592 74.7033C64.5291 74.8733 64.7596 74.9688 65 74.9688C65.2404 74.9688 65.4709 74.8733 65.6408 74.7033C65.8108 74.5334 65.9062 74.3029 65.9062 74.0625V72.9895C66.5104 72.7767 67.0198 72.3569 67.3441 71.8045C67.6685 71.2522 67.7869 70.6028 67.6783 69.9715C67.5698 69.3402 67.2413 68.7677 66.7511 68.3554C66.2609 67.9431 65.6406 67.7175 65 67.7188C64.8208 67.7188 64.6455 67.6656 64.4965 67.566C64.3475 67.4664 64.2313 67.3249 64.1627 67.1593C64.0941 66.9937 64.0762 66.8115 64.1112 66.6357C64.1461 66.4599 64.2324 66.2984 64.3592 66.1717C64.4859 66.0449 64.6474 65.9586 64.8232 65.9237C64.999 65.8887 65.1812 65.9066 65.3468 65.9752C65.5124 66.0438 65.6539 66.16 65.7535 66.309C65.8531 66.458 65.9062 66.6333 65.9062 66.8125C65.9062 67.0529 66.0017 67.2834 66.1717 67.4533C66.3416 67.6233 66.5721 67.7188 66.8125 67.7188C67.0529 67.7188 67.2834 67.6233 67.4533 67.4533C67.6233 67.2834 67.7188 67.0529 67.7188 66.8125C67.7164 66.2522 67.541 65.7063 67.2166 65.2495C66.8922 64.7927 66.4345 64.4473 65.9062 64.2605V63.1875C65.9062 62.9471 65.8108 62.7166 65.6408 62.5467C65.4709 62.3767 65.2404 62.2812 65 62.2812C64.7596 62.2812 64.5291 62.3767 64.3592 62.5467C64.1892 62.7166 64.0938 62.9471 64.0938 63.1875V64.2605C63.4896 64.4733 62.9802 64.8931 62.6559 65.4455C62.3315 65.9978 62.2131 66.6472 62.3217 67.2785C62.4302 67.9098 62.7587 68.4823 63.2489 68.8946C63.7391 69.3069 64.3594 69.5325 65 69.5312C65.2404 69.5312 65.4709 69.6267 65.6408 69.7967C65.8108 69.9666 65.9062 70.1971 65.9062 70.4375C65.9062 70.6779 65.8108 70.9084 65.6408 71.0783C65.4709 71.2483 65.2404 71.3438 65 71.3438Z" fill="#1E1E1E"/>
<path d="M89.6663 68.625H83.7938C82.4155 64.1283 79.8107 60.1049 76.2719 57.0069L71.2368 52.6007C71.6273 52.2894 71.9236 51.8757 72.0926 51.4057C72.2617 50.9358 72.2968 50.4282 72.1942 49.9395C72.0916 49.4507 71.8552 49.0001 71.5114 48.6379C71.1676 48.2757 70.7299 48.0162 70.2472 47.8882L74.8174 41.0333C74.9265 40.87 74.9796 40.6756 74.9686 40.4794C74.9577 40.2833 74.8833 40.096 74.7567 39.9458C74.734 39.9204 74.705 39.905 74.6806 39.8815L74.6878 39.8742C73.2919 38.5591 71.4491 37.8223 69.5312 37.8125C68.0181 37.8153 66.5416 38.2787 65.2982 39.1411C62.4842 37.9104 59.5625 36.677 55.3937 39.8062C55.2084 39.9453 55.0833 40.15 55.0442 40.3784C55.0051 40.6068 55.0549 40.8415 55.1835 41.0342L59.7537 47.8891C59.318 48.0039 58.9182 48.2263 58.5909 48.5359C58.2636 48.8455 58.0193 49.2325 57.8805 49.6611C57.7418 50.0898 57.7129 50.5464 57.7967 50.9891C57.8805 51.4318 58.0741 51.8464 58.3599 52.1947L54.0706 56.1985L55.3086 57.5225L59.9196 53.2188H69.1905L75.0811 58.3708C78.223 61.1226 80.5744 64.6622 81.8934 68.625H78.3962C77.7277 68.6257 77.0869 68.8916 76.6142 69.3642C76.1416 69.8369 75.8757 70.4777 75.875 71.1462V73.3538C75.8776 73.9465 76.0909 74.5189 76.4768 74.9688C76.0909 75.4186 75.8776 75.991 75.875 76.5837V78.7913C75.8787 79.057 75.9245 79.3203 76.0109 79.5716C75.4582 79.7007 74.9652 80.0125 74.6116 80.4565C74.258 80.9005 74.0646 81.4509 74.0625 82.0185V84.2261C74.0646 84.7937 74.258 85.344 74.6116 85.7881C74.9652 86.2321 75.4582 86.5439 76.0109 86.673C75.9245 86.9242 75.8787 87.1876 75.875 87.4533V89.6609C75.8791 89.7672 75.8897 89.8731 75.9067 89.9781C75.013 90.2384 74.0871 90.372 73.1562 90.375H73.0421C73.1142 90.1455 73.1527 89.9068 73.1562 89.6663V87.4587C73.1536 86.866 72.9403 86.2936 72.5545 85.8438C72.9403 85.3939 73.1536 84.8215 73.1562 84.2288V82.0212C73.1555 81.3527 72.8897 80.7119 72.417 80.2392C71.9444 79.7666 71.3035 79.5007 70.6351 79.5H59.3649C58.6965 79.5007 58.0556 79.7666 57.583 80.2392C57.1103 80.7119 56.8445 81.3527 56.8438 82.0212V84.2288C56.8464 84.8215 57.0597 85.3939 57.4455 85.8438C57.0597 86.2936 56.8464 86.866 56.8438 87.4587V89.6663C56.8473 89.9068 56.8858 90.1455 56.9579 90.375H56.8438C55.9131 90.3737 54.9873 90.242 54.0933 89.9835C54.1103 89.8785 54.1209 89.7726 54.125 89.6663V87.4587C54.1213 87.193 54.0755 86.9297 53.9891 86.6784C54.5418 86.5493 55.0348 86.2375 55.3884 85.7935C55.742 85.3495 55.9354 84.7991 55.9375 84.2315V82.0212C55.9354 81.4536 55.742 80.9033 55.3884 80.4592C55.0348 80.0152 54.5418 79.7034 53.9891 79.5743C54.0755 79.3231 54.1213 79.0597 54.125 78.794V76.5837C54.1224 75.991 53.9091 75.4186 53.5233 74.9688C53.9091 74.5189 54.1224 73.9465 54.125 73.3538V71.1462C54.1243 70.4777 53.8584 69.8369 53.3858 69.3642C52.9131 68.8916 52.2723 68.6257 51.6038 68.625H47.9516C49.0938 64.9471 51.1201 61.6052 53.8531 58.8919L52.5844 57.6041C49.503 60.6595 47.2565 64.454 46.0594 68.625H40.3337C39.6652 68.6257 39.0244 68.8916 38.5517 69.3642C38.0791 69.8369 37.8132 70.4777 37.8125 71.1462V73.3538C37.8151 73.9465 38.0284 74.5189 38.4143 74.9688C38.0284 75.4186 37.8151 75.991 37.8125 76.5837V78.7913C37.8146 79.3589 38.008 79.9092 38.3616 80.3533C38.7152 80.7973 39.2082 81.1091 39.7609 81.2382C39.6745 81.4894 39.6287 81.7528 39.625 82.0185V84.2261C39.6287 84.4917 39.6745 84.7551 39.7609 85.0064C39.2073 85.1357 38.7136 85.4483 38.3599 85.8934C38.0062 86.3386 37.8133 86.8901 37.8125 87.4587V89.6663C37.8132 90.3348 38.0791 90.9756 38.5517 91.4483C39.0244 91.9209 39.6652 92.1868 40.3337 92.1875H51.6038C52.1872 92.1851 52.7513 91.9783 53.1979 91.603C54.3748 91.9888 55.6053 92.186 56.8438 92.1875H73.1562C74.3947 92.186 75.6252 91.9888 76.8021 91.603C77.2487 91.9783 77.8128 92.1851 78.3962 92.1875H89.6663C90.3348 92.1868 90.9756 91.9209 91.4483 91.4483C91.9209 90.9756 92.1868 90.3348 92.1875 89.6663V87.4587C92.1854 86.8911 91.992 86.3408 91.6384 85.8967C91.2848 85.4527 90.7918 85.1409 90.2391 85.0118C90.3255 84.7606 90.3713 84.4972 90.375 84.2315V82.0212C90.3713 81.7555 90.3255 81.4922 90.2391 81.2409C90.7918 81.1118 91.2848 80.8 91.6384 80.356C91.992 79.912 92.1854 79.3616 92.1875 78.794V76.5837C92.1849 75.991 91.9716 75.4186 91.5857 74.9688C91.9716 74.5189 92.1849 73.9465 92.1875 73.3538V71.1462C92.1868 70.4777 91.9209 69.8369 91.4483 69.3642C90.9756 68.8916 90.3348 68.6257 89.6663 68.625ZM72.1086 40.2594C70.5753 40.6533 68.9582 40.5705 67.4732 40.0219C68.1278 39.7604 68.8263 39.6257 69.5312 39.625C70.4275 39.6374 71.309 39.8543 72.1086 40.2594ZM64.6475 40.8376C66.6856 41.7302 68.9358 42.718 71.8821 42.1716L68.1402 47.7812H61.8598L57.1836 40.7669C60.1507 38.8656 62.1562 39.7428 64.6475 40.8348V40.8376ZM60.4688 51.4062C60.2284 51.4062 59.9979 51.3108 59.8279 51.1408C59.658 50.9709 59.5625 50.7404 59.5625 50.5C59.5625 50.2596 59.658 50.0291 59.8279 49.8592C59.9979 49.6892 60.2284 49.5938 60.4688 49.5938H69.5312C69.7716 49.5938 70.0021 49.6892 70.1721 49.8592C70.342 50.0291 70.4375 50.2596 70.4375 50.5C70.4375 50.7404 70.342 50.9709 70.1721 51.1408C70.0021 51.3108 69.7716 51.4062 69.5312 51.4062H60.4688ZM54.125 84.2288C54.1248 84.4167 54.05 84.5968 53.9172 84.7297C53.7843 84.8625 53.6042 84.9373 53.4163 84.9375H42.1462C41.9583 84.9373 41.7782 84.8625 41.6453 84.7297C41.5125 84.5968 41.4377 84.4167 41.4375 84.2288V82.0212C41.4377 81.8333 41.5125 81.6532 41.6453 81.5203C41.7782 81.3875 41.9583 81.3127 42.1462 81.3125H43.25V83.125H45.0625V81.3125H46.875V83.125H48.6875V81.3125H50.5V83.125H52.3125V81.3125H53.4163C53.6042 81.3127 53.7843 81.3875 53.9172 81.5203C54.05 81.6532 54.1248 81.8333 54.125 82.0212V84.2288ZM39.625 71.1462C39.6252 70.9583 39.7 70.7782 39.8328 70.6453C39.9657 70.5125 40.1458 70.4377 40.3337 70.4375H41.4375V72.25H43.25V70.4375H45.0625V72.25H46.875V70.4375H48.6875V72.25H50.5V70.4375H51.6038C51.7917 70.4377 51.9718 70.5125 52.1047 70.6453C52.2375 70.7782 52.3123 70.9583 52.3125 71.1462V73.3538C52.3123 73.5417 52.2375 73.7218 52.1047 73.8547C51.9718 73.9875 51.7917 74.0623 51.6038 74.0625H40.3337C40.1458 74.0623 39.9657 73.9875 39.8328 73.8547C39.7 73.7218 39.6252 73.5417 39.625 73.3538V71.1462ZM39.625 76.5837C39.6252 76.3958 39.7 76.2157 39.8328 76.0828C39.9657 75.95 40.1458 75.8752 40.3337 75.875H41.4375V77.6875H43.25V75.875H45.0625V77.6875H46.875V75.875H48.6875V77.6875H50.5V75.875H51.6038C51.7917 75.8752 51.9718 75.95 52.1047 76.0828C52.2375 76.2157 52.3123 76.3958 52.3125 76.5837V78.7913C52.3123 78.9792 52.2375 79.1593 52.1047 79.2922C51.9718 79.425 51.7917 79.4998 51.6038 79.5H40.3337C40.1458 79.4998 39.9657 79.425 39.8328 79.2922C39.7 79.1593 39.6252 78.9792 39.625 78.7913V76.5837ZM52.3125 89.6663C52.3123 89.8542 52.2375 90.0343 52.1047 90.1672C51.9718 90.3 51.7917 90.3748 51.6038 90.375H40.3337C40.1458 90.3748 39.9657 90.3 39.8328 90.1672C39.7 90.0343 39.6252 89.8542 39.625 89.6663V87.4587C39.6252 87.2708 39.7 87.0907 39.8328 86.9578C39.9657 86.825 40.1458 86.7502 40.3337 86.75H41.4375V88.5625H43.25V86.75H45.0625V88.5625H46.875V86.75H48.6875V88.5625H50.5V86.75H51.6038C51.7917 86.7502 51.9718 86.825 52.1047 86.9578C52.2375 87.0907 52.3123 87.2708 52.3125 87.4587V89.6663ZM58.6562 82.0212C58.6565 81.8333 58.7312 81.6532 58.8641 81.5203C58.9969 81.3875 59.1771 81.3127 59.3649 81.3125H60.4688V83.125H62.2812V81.3125H64.0938V83.125H65.9062V81.3125H67.7188V83.125H69.5312V81.3125H70.6351C70.8229 81.3127 71.0031 81.3875 71.1359 81.5203C71.2688 81.6532 71.3435 81.8333 71.3438 82.0212V84.2288C71.3435 84.4167 71.2688 84.5968 71.1359 84.7297C71.0031 84.8625 70.8229 84.9373 70.6351 84.9375H59.3649C59.1771 84.9373 58.9969 84.8625 58.8641 84.7297C58.7312 84.5968 58.6565 84.4167 58.6562 84.2288V82.0212ZM59.3649 90.375C59.1771 90.3748 58.9969 90.3 58.8641 90.1672C58.7312 90.0343 58.6565 89.8542 58.6562 89.6663V87.4587C58.6565 87.2708 58.7312 87.0907 58.8641 86.9578C58.9969 86.825 59.1771 86.7502 59.3649 86.75H60.4688V88.5625H62.2812V86.75H64.0938V88.5625H65.9062V86.75H67.7188V88.5625H69.5312V86.75H70.6351C70.8229 86.7502 71.0031 86.825 71.1359 86.9578C71.2688 87.0907 71.3435 87.2708 71.3438 87.4587V89.6663C71.3435 89.8542 71.2688 90.0343 71.1359 90.1672C71.0031 90.3 70.8229 90.3748 70.6351 90.375H59.3649ZM77.6875 71.1462C77.6877 70.9583 77.7625 70.7782 77.8953 70.6453C78.0282 70.5125 78.2083 70.4377 78.3962 70.4375H79.5V72.25H81.3125V70.4375H83.125V72.25H84.9375V70.4375H86.75V72.25H88.5625V70.4375H89.6663C89.8542 70.4377 90.0343 70.5125 90.1672 70.6453C90.3 70.7782 90.3748 70.9583 90.375 71.1462V73.3538C90.3748 73.5417 90.3 73.7218 90.1672 73.8547C90.0343 73.9875 89.8542 74.0623 89.6663 74.0625H78.3962C78.2083 74.0623 78.0282 73.9875 77.8953 73.8547C77.7625 73.7218 77.6877 73.5417 77.6875 73.3538V71.1462ZM75.875 82.0212C75.8752 81.8333 75.95 81.6532 76.0828 81.5203C76.2157 81.3875 76.3958 81.3127 76.5837 81.3125H77.6875V83.125H79.5V81.3125H81.3125V83.125H83.125V81.3125H84.9375V83.125H86.75V81.3125H87.8538C88.0417 81.3127 88.2218 81.3875 88.3547 81.5203C88.4875 81.6532 88.5623 81.8333 88.5625 82.0212V84.2288C88.5623 84.4167 88.4875 84.5968 88.3547 84.7297C88.2218 84.8625 88.0417 84.9373 87.8538 84.9375H76.5837C76.3958 84.9373 76.2157 84.8625 76.0828 84.7297C75.95 84.5968 75.8752 84.4167 75.875 84.2288V82.0212ZM90.375 89.6663C90.3748 89.8542 90.3 90.0343 90.1672 90.1672C90.0343 90.3 89.8542 90.3748 89.6663 90.375H78.3962C78.2083 90.3748 78.0282 90.3 77.8953 90.1672C77.7625 90.0343 77.6877 89.8542 77.6875 89.6663V87.4587C77.6877 87.2708 77.7625 87.0907 77.8953 86.9578C78.0282 86.825 78.2083 86.7502 78.3962 86.75H79.5V88.5625H81.3125V86.75H83.125V88.5625H84.9375V86.75H86.75V88.5625H88.5625V86.75H89.6663C89.8542 86.7502 90.0343 86.825 90.1672 86.9578C90.3 87.0907 90.3748 87.2708 90.375 87.4587V89.6663ZM90.375 78.7913C90.3748 78.9792 90.3 79.1593 90.1672 79.2922C90.0343 79.425 89.8542 79.4998 89.6663 79.5H78.3962C78.2083 79.4998 78.0282 79.425 77.8953 79.2922C77.7625 79.1593 77.6877 78.9792 77.6875 78.7913V76.5837C77.6877 76.3958 77.7625 76.2157 77.8953 76.0828C78.0282 75.95 78.2083 75.8752 78.3962 75.875H79.5V77.6875H81.3125V75.875H83.125V77.6875H84.9375V75.875H86.75V77.6875H88.5625V75.875H89.6663C89.8542 75.8752 90.0343 75.95 90.1672 76.0828C90.3 76.2157 90.3748 76.3958 90.375 76.5837V78.7913Z" fill="#1E1E1E"/>
</svg>
