<svg width="52" height="61" viewBox="0 0 52 61" fill="none" xmlns="http://www.w3.org/2000/svg">
<path d="M29.9649 37.2274H27.4023C26.2729 37.2247 25.1673 36.8573 24.2134 36.1676C23.2596 35.478 22.4964 34.4944 22.0124 33.3306H27.4023C27.6289 33.3306 27.8461 33.228 28.0063 33.0453C28.1665 32.8626 28.2565 32.6148 28.2565 32.3564C28.2565 32.0981 28.1665 31.8503 28.0063 31.6676C27.8461 31.4849 27.6289 31.3823 27.4023 31.3823H21.4914C21.4002 30.737 21.4002 30.0792 21.4914 29.4339H27.4023C27.6289 29.4339 27.8461 29.3313 28.0063 29.1486C28.1665 28.9659 28.2565 28.7181 28.2565 28.4597C28.2565 28.2013 28.1665 27.9536 28.0063 27.7709C27.8461 27.5882 27.6289 27.4855 27.4023 27.4855H22.0124C22.4964 26.3218 23.2596 25.3381 24.2134 24.6485C25.1673 23.9589 26.2729 23.5915 27.4023 23.5888H29.9649C30.1914 23.5888 30.4087 23.4862 30.5689 23.3035C30.7291 23.1208 30.8191 22.873 30.8191 22.6146C30.8191 22.3563 30.7291 22.1085 30.5689 21.9258C30.4087 21.7431 30.1914 21.6404 29.9649 21.6404H27.4023C25.8148 21.6435 24.267 22.207 22.9716 23.2536C21.6761 24.3002 20.6966 25.7785 20.1674 27.4855H18.0063C17.7797 27.4855 17.5625 27.5882 17.4023 27.7709C17.2421 27.9536 17.1521 28.2013 17.1521 28.4597C17.1521 28.7181 17.2421 28.9659 17.4023 29.1486C17.5625 29.3313 17.7797 29.4339 18.0063 29.4339H19.7659C19.6975 30.081 19.6975 30.7351 19.7659 31.3823H18.0068C17.7802 31.3823 17.563 31.4849 17.4028 31.6676C17.2426 31.8503 17.1526 32.0981 17.1526 32.3564C17.1526 32.6148 17.2426 32.8626 17.4028 33.0453C17.563 33.228 17.7802 33.3306 18.0068 33.3306H20.1674C20.6966 35.0376 21.6761 36.5159 22.9716 37.5625C24.267 38.6091 25.8148 39.1726 27.4023 39.1757H29.9649C30.1914 39.1757 30.4087 39.0731 30.5689 38.8904C30.7291 38.7077 30.8191 38.4599 30.8191 38.2015C30.8191 37.9432 30.7291 37.6954 30.5689 37.5127C30.4087 37.33 30.1914 37.2274 29.9649 37.2274Z" fill="#BEE4FF"/>
<path d="M16.1124 16.5842C11.5511 19.7182 8.55615 24.9975 8.55615 30.9819C8.55615 36.5325 11.1326 41.4765 15.1457 44.6648M19.9537 14.6034C21.7873 13.935 23.7652 13.5706 25.8275 13.5706C33.3355 13.5706 39.7245 18.4 42.1046 25.1454M43.0293 29.4078C43.0754 29.9263 43.0989 30.4513 43.0989 30.9819C43.0989 40.5979 35.3663 48.3933 25.8275 48.3933C23.3493 48.3933 20.9929 47.8671 18.8624 46.9195" stroke="#BEE4FF" stroke-width="1.8" stroke-linecap="round"/>
<path d="M30.1455 55.3703L30.6293 56.1292C30.8896 55.9632 31.0467 55.6754 31.0455 55.3667C31.0442 55.0579 30.8848 54.7714 30.6231 54.6075L30.1455 55.3703ZM23.8827 50.3865C23.4614 50.1227 22.9061 50.2504 22.6423 50.6716C22.3785 51.0929 22.5061 51.6483 22.9274 51.9121L23.8827 50.3865ZM22.9212 58.9085C22.5021 59.1757 22.379 59.7321 22.6462 60.1512C22.9134 60.5703 23.4697 60.6935 23.8889 60.4263L22.9212 58.9085ZM16.4669 8.78554C16.9238 8.5898 17.1355 8.06074 16.9398 7.60385C16.744 7.14695 16.215 6.93524 15.7581 7.13097L16.4669 8.78554ZM25.9511 54.8204C12.6658 54.8204 1.9 44.0794 1.9 30.8346H0.1C0.1 45.0779 11.6761 56.6204 25.9511 56.6204V54.8204ZM29.9957 54.4828C28.6813 54.7048 27.3301 54.8204 25.9511 54.8204V56.6204C27.4309 56.6204 28.8823 56.4963 30.2953 56.2577L29.9957 54.4828ZM22.9274 51.9121L29.6678 56.1331L30.6231 54.6075L23.8827 50.3865L22.9274 51.9121ZM23.8889 60.4263L30.6293 56.1292L29.6617 54.6114L22.9212 58.9085L23.8889 60.4263ZM1.9 30.8346C1.9 20.949 7.89713 12.4568 16.4669 8.78554L15.7581 7.13097C6.55196 11.0748 0.1 20.2014 0.1 30.8346H1.9Z" fill="#BEE4FF"/>
<path d="M21.5098 5.89717L21.026 5.13827C20.7656 5.30424 20.6086 5.59207 20.6098 5.9008C20.611 6.20954 20.7705 6.49609 21.0321 6.65995L21.5098 5.89717ZM27.7726 10.8809C28.1938 11.1447 28.7492 11.0171 29.013 10.5958C29.2768 10.1745 29.1492 9.61917 28.7279 9.35536L27.7726 10.8809ZM28.734 2.35895C29.1532 2.09175 29.2763 1.53537 29.0091 1.11624C28.7419 0.697114 28.1855 0.573952 27.7664 0.841152L28.734 2.35895ZM35.1884 52.4819C34.7315 52.6777 34.5198 53.2067 34.7155 53.6636C34.9113 54.1205 35.4403 54.3322 35.8972 54.1365L35.1884 52.4819ZM25.7042 6.44705C38.9895 6.44705 49.7553 17.1881 49.7553 30.4328H51.5553C51.5553 16.1895 39.9791 4.64705 25.7042 4.64705V6.44705ZM21.6596 6.78461C22.974 6.5627 24.3252 6.44705 25.7042 6.44705V4.64705C24.2244 4.64705 22.773 4.77117 21.36 5.00973L21.6596 6.78461ZM28.7279 9.35536L21.9875 5.13439L21.0321 6.65995L27.7726 10.8809L28.7279 9.35536ZM27.7664 0.841152L21.026 5.13827L21.9936 6.65607L28.734 2.35895L27.7664 0.841152ZM49.7553 30.4328C49.7553 40.3185 43.7581 48.8107 35.1884 52.4819L35.8972 54.1365C45.1033 50.1926 51.5553 41.0661 51.5553 30.4328H49.7553Z" fill="#E0FF22"/>
</svg>
