<svg width="1518" height="880" viewBox="0 0 1518 880" fill="none" xmlns="http://www.w3.org/2000/svg">
<path d="M2.2541 875.699L0.952705 876.444L2.4445 879.047L3.7459 878.301L2.2541 875.699ZM505.289 589.113L506.346 588.049L504.543 587.812L505.289 589.113ZM694.887 777.297L693.83 778.361L695.84 778.455L694.887 777.297ZM1179.88 378.477L1178.93 377.319L1178.93 377.319L1179.88 378.477ZM3.7459 878.301L506.035 590.415L504.543 587.812L2.2541 875.699L3.7459 878.301ZM504.232 590.178L693.83 778.361L695.944 776.232L506.346 588.049L504.232 590.178ZM695.84 778.455L1180.83 379.636L1178.93 377.319L693.934 776.138L695.84 778.455ZM1180.83 379.636L1393.01 205.159L1391.1 202.841L1178.93 377.319L1180.83 379.636Z" fill="url(#paint0_linear_1_294)"/>
<defs>
<linearGradient id="paint0_linear_1_294" x1="1300.52" y1="231.746" x2="336.393" y2="475.311" gradientUnits="userSpaceOnUse">
<stop stop-color="#28B4A7" stop-opacity="0.18"/>
<stop offset="0.53125" stop-color="#A4D1E4" stop-opacity="0.7"/>
<stop offset="1" stop-color="#8764E3" stop-opacity="0.18"/>
</linearGradient>
</defs>
</svg>
