<svg width="52" height="61" viewBox="0 0 52 61" fill="none" xmlns="http://www.w3.org/2000/svg">
<path d="M29.9649 37.0033H27.4024C26.273 37.0007 25.1674 36.6368 24.2135 35.9538C23.2596 35.2709 22.4965 34.2967 22.0125 33.1442H27.4024C27.6289 33.1442 27.8462 33.0425 28.0064 32.8616C28.1666 32.6807 28.2566 32.4353 28.2566 32.1794C28.2566 31.9235 28.1666 31.6781 28.0064 31.4972C27.8462 31.3163 27.6289 31.2146 27.4024 31.2146H21.4914C21.4003 30.5755 21.4003 29.9241 21.4914 29.285H27.4024C27.6289 29.285 27.8462 29.1834 28.0064 29.0025C28.1666 28.8215 28.2565 28.5761 28.2565 28.3203C28.2565 28.0644 28.1666 27.819 28.0064 27.6381C27.8462 27.4571 27.6289 27.3555 27.4024 27.3555H22.0125C22.4965 26.2029 23.2596 25.2288 24.2135 24.5458C25.1674 23.8629 26.273 23.499 27.4024 23.4963H29.9649C30.1915 23.4963 30.4087 23.3947 30.5689 23.2138C30.7291 23.0328 30.8191 22.7874 30.8191 22.5316C30.8191 22.2757 30.7291 22.0303 30.5689 21.8494C30.4087 21.6684 30.1915 21.5668 29.9649 21.5668H27.4024C25.8148 21.5698 24.2671 22.1279 22.9716 23.1644C21.6762 24.2009 20.6966 25.6649 20.1674 27.3555H18.0063C17.7798 27.3555 17.5625 27.4571 17.4023 27.6381C17.2421 27.819 17.1521 28.0644 17.1521 28.3203C17.1521 28.5761 17.2421 28.8215 17.4023 29.0025C17.5625 29.1834 17.7798 29.285 18.0063 29.285H19.766C19.6976 29.9259 19.6976 30.5737 19.766 31.2146H18.0068C17.7803 31.2146 17.563 31.3163 17.4028 31.4972C17.2426 31.6781 17.1527 31.9235 17.1527 32.1794C17.1527 32.4353 17.2426 32.6807 17.4028 32.8616C17.563 33.0425 17.7803 33.1442 18.0068 33.1442H20.1674C20.6966 34.8347 21.6762 36.2988 22.9716 37.3353C24.2671 38.3718 25.8148 38.9298 27.4024 38.9329H29.9649C30.1915 38.9329 30.4087 38.8312 30.5689 38.6503C30.7291 38.4694 30.8191 38.224 30.8191 37.9681C30.8191 37.7122 30.7291 37.4668 30.5689 37.2859C30.4087 37.105 30.1915 37.0033 29.9649 37.0033Z" fill="#BEE4FF"/>
<path d="M16.1124 16.5593C11.5511 19.663 8.55621 24.8914 8.55621 30.8181C8.55621 36.3152 11.1327 41.2115 15.1457 44.369M19.9538 14.5975C21.7874 13.9356 23.7653 13.5747 25.8276 13.5747C33.3355 13.5747 39.7245 18.3575 42.1047 25.0378M43.0294 29.2591C43.0755 29.7726 43.099 30.2926 43.099 30.8181C43.099 40.3414 35.3663 48.0615 25.8276 48.0615C23.3493 48.0615 20.993 47.5404 18.8625 46.6019" stroke="#BEE4FF" stroke-width="1.8" stroke-linecap="round"/>
<path d="M30.1455 54.9712L30.626 55.7322C30.8882 55.5667 31.0467 55.2777 31.0455 54.9676C31.0442 54.6575 30.8834 54.3698 30.6198 54.2064L30.1455 54.9712ZM23.8794 50.0261C23.457 49.7641 22.9022 49.8942 22.6402 50.3166C22.3782 50.739 22.5083 51.2938 22.9307 51.5558L23.8794 50.0261ZM22.9246 58.4659C22.5043 58.7312 22.3787 59.2871 22.644 59.7074C22.9094 60.1277 23.4652 60.2533 23.8855 59.9879L22.9246 58.4659ZM16.464 8.84506C16.9216 8.65093 17.1351 8.12261 16.941 7.66503C16.7469 7.20745 16.2185 6.99389 15.761 7.18802L16.464 8.84506ZM25.9511 54.418C12.6576 54.418 1.9 43.7762 1.9 30.6722H0.1C0.1 44.7912 11.6844 56.218 25.9511 56.218V54.418ZM29.9971 54.0835C28.6822 54.3034 27.3306 54.418 25.9511 54.418V56.218C27.4304 56.218 28.8813 56.0951 30.2939 55.8589L29.9971 54.0835ZM22.9307 51.5558L29.6711 55.7361L30.6198 54.2064L23.8794 50.0261L22.9307 51.5558ZM23.8855 59.9879L30.626 55.7322L29.665 54.2102L22.9246 58.4659L23.8855 59.9879ZM1.9 30.6722C1.9 20.8906 7.89204 12.4818 16.464 8.84506L15.761 7.18802C6.55705 11.0929 0.1 20.1329 0.1 30.6722H1.9Z" fill="#BEE4FF"/>
<path d="M21.5098 5.97532L21.0293 5.2143C20.7671 5.37987 20.6086 5.6688 20.6098 5.97893C20.611 6.28907 20.7719 6.57671 21.0355 6.74017L21.5098 5.97532ZM27.7759 10.9204C28.1983 11.1824 28.7531 11.0523 29.0151 10.6299C29.277 10.2075 29.147 9.65269 28.7246 9.39072L27.7759 10.9204ZM28.7307 2.48066C29.151 2.2153 29.2766 1.65947 29.0112 1.23917C28.7459 0.818877 28.19 0.693276 27.7697 0.958637L28.7307 2.48066ZM35.1913 52.1015C34.7337 52.2956 34.5202 52.8239 34.7143 53.2815C34.9084 53.7391 35.4367 53.9526 35.8943 53.7585L35.1913 52.1015ZM25.7042 6.52858C38.9977 6.52858 49.7553 17.1703 49.7553 30.2743H51.5553C51.5553 16.1554 39.9709 4.72858 25.7042 4.72858V6.52858ZM21.6582 6.86299C22.973 6.64315 24.3247 6.52858 25.7042 6.52858V4.72858C24.2249 4.72858 22.7739 4.85146 21.3614 5.08764L21.6582 6.86299ZM28.7246 9.39072L21.9841 5.21046L21.0355 6.74017L27.7759 10.9204L28.7246 9.39072ZM27.7697 0.958637L21.0293 5.2143L21.9903 6.73633L28.7307 2.48066L27.7697 0.958637ZM49.7553 30.2743C49.7553 40.0559 43.7632 48.4647 35.1913 52.1015L35.8943 53.7585C45.0982 49.8536 51.5553 40.8136 51.5553 30.2743H49.7553Z" fill="#E0FF22"/>
</svg>
