<svg width="84" height="84" viewBox="0 0 84 84" fill="none" xmlns="http://www.w3.org/2000/svg">
<path fill-rule="evenodd" clip-rule="evenodd" d="M9.44645 19.5796L9.44511 19.5805L9.43402 19.5867L9.41688 19.5961L9.41487 19.5975L9.411 19.5996L9.3848 19.6151L9.38362 19.6159C9.25544 19.6935 9.13649 19.7905 9.03099 19.9066L9.02931 19.9084C9.02192 19.9165 9.01469 19.9247 9.00747 19.9329L9.00461 19.9363L9.00176 19.9397C8.99621 19.9459 8.99084 19.9524 8.98546 19.9588L8.98344 19.9612L8.97992 19.9655L8.97538 19.9711C8.96984 19.9778 8.96463 19.9844 8.95925 19.9911L8.95572 19.9954L8.95018 20.0027L8.94682 20.007L8.93859 20.018L8.93237 20.0259L8.92649 20.0339L8.92229 20.0396L8.91608 20.0484L8.90986 20.0568L8.90398 20.0652L8.89877 20.0727L8.89356 20.0803L8.88802 20.0884L8.88281 20.0962L8.87609 20.1062L8.87172 20.113L8.86685 20.1204L8.86282 20.1268L8.85442 20.1401L8.85089 20.1461L8.84652 20.1532L8.82687 20.1863L8.82418 20.1912L8.80805 20.2201L8.80503 20.2258L8.80452 20.2266L8.80268 20.23L8.78991 20.2542L8.78672 20.2609L8.78621 20.2617L8.7847 20.2647L8.77277 20.2888L8.76908 20.2967L8.75631 20.3239L8.75211 20.3336C8.66424 20.5314 8.61536 20.7503 8.61536 20.9808V64.1517C8.61536 64.4383 8.69096 64.7075 8.82334 64.9398C8.90986 65.0927 9.0236 65.2338 9.16337 65.3555L9.1669 65.3586L9.16892 65.3603C9.17429 65.3649 9.17967 65.3696 9.18521 65.3741L9.19076 65.3786L9.19613 65.3833L9.20016 65.3865C9.20672 65.3919 9.21344 65.3973 9.22016 65.4027L9.22604 65.4074L9.23141 65.4116C9.23796 65.4166 9.24452 65.4216 9.25107 65.4265L9.25644 65.4307L9.26283 65.4352C9.26938 65.4403 9.2761 65.4452 9.28282 65.4499L9.28752 65.4534L9.29424 65.4581L9.29878 65.4611L9.31457 65.472L9.31911 65.4752L9.326 65.4798L9.33221 65.484L9.34548 65.4925L9.3512 65.4964L9.35792 65.5006L9.36598 65.5056L9.37757 65.5129C9.62033 65.6619 9.90576 65.7477 10.2114 65.7477H76.7182C77.0238 65.7477 77.3092 65.6619 77.552 65.5129L77.5636 65.5056L77.5716 65.5006L77.5784 65.4964L77.5841 65.4925L77.5973 65.484L77.6036 65.4798L77.6104 65.4752L77.615 65.472L77.6308 65.4611L77.6353 65.4581L77.642 65.4534L77.6467 65.4499C77.6535 65.4452 77.6602 65.4403 77.6667 65.4352L77.6731 65.4307L77.6785 65.4265C77.685 65.4216 77.6916 65.4166 77.6981 65.4116L77.7035 65.4074L77.7094 65.4027C77.7161 65.3975 77.7228 65.3919 77.7294 65.3865L77.7334 65.3833L77.7388 65.3786L77.7443 65.3741C77.7499 65.3696 77.7553 65.3649 77.7606 65.3603L77.7627 65.3586L77.7662 65.3555C77.906 65.2338 78.0195 65.0929 78.1062 64.9398C78.2386 64.7075 78.3142 64.4383 78.3142 64.1517V20.9808C78.3142 20.7503 78.2653 20.5314 78.1774 20.3336L78.1732 20.3239L78.1617 20.2992L78.1568 20.2888L78.1449 20.2647L78.1433 20.2617L78.1428 20.2609L78.1397 20.2542L78.1269 20.23L78.125 20.2266L78.1245 20.2258L78.1215 20.2201L78.1072 20.1945L78.1027 20.1863L78.083 20.1532L78.0787 20.1461L78.0751 20.1401L78.0667 20.1268L78.0627 20.1204L78.0578 20.113L78.0535 20.1062L78.0467 20.0962L78.0415 20.0884L78.036 20.0803L78.0308 20.0727L78.0256 20.0652L78.0197 20.0568L78.0135 20.0484L78.0073 20.0396L78.0031 20.0339L77.9972 20.0259L77.991 20.018L77.9827 20.007L77.9794 20.0027L77.9738 19.9954L77.9703 19.9911C77.9651 19.9845 77.9597 19.9778 77.9542 19.9711L77.9496 19.9655L77.9461 19.9612L77.9441 19.9588C77.9387 19.9524 77.9333 19.9459 77.9278 19.9397L77.9249 19.9363L77.9221 19.9329C77.9149 19.9247 77.9076 19.9165 77.9002 19.9084L77.8986 19.9066C77.7932 19.7905 77.6741 19.6935 77.5459 19.6159L77.5186 19.5996L77.5147 19.5975L77.5127 19.5961L77.4955 19.5867L77.4844 19.5805L77.4831 19.5796C77.2561 19.4553 76.9954 19.3848 76.7182 19.3848H10.2114C9.93416 19.3848 9.67342 19.4553 9.44645 19.5796ZM75.1222 24.3888L52.4489 43.2876C47.2448 47.6254 39.6848 47.6254 34.4806 43.2876L11.8074 24.3888V59.7684L27.1105 41.5401C27.677 40.8654 28.6845 40.7776 29.3592 41.3439C30.0337 41.9102 30.1215 42.9179 29.5552 43.5924L13.6352 62.5557H73.2944L57.3743 43.5924C56.808 42.9179 56.8959 41.9102 57.5704 41.3439C58.2451 40.7776 59.2526 40.8654 59.8191 41.5401L75.1222 59.7684V24.3888ZM14.6188 22.5768L36.5244 40.8358C40.5446 44.1868 46.385 44.1868 50.4052 40.8358L72.3107 22.5768H14.6188Z" fill="white"/>
</svg>
