<svg width="78" height="78" viewBox="0 0 78 78" fill="none" xmlns="http://www.w3.org/2000/svg">
<path d="M40.5463 74.5418L43.9359 71.1522L52.0254 63.0627L61.8516 53.2365L70.299 44.7891C71.6701 43.418 73.0641 42.0697 74.4123 40.6758L74.4732 40.6149C75.3492 39.7389 75.3492 38.2611 74.4732 37.3852L71.0836 33.9955L62.9941 25.9061L53.168 16.0799L44.7205 7.63243C43.3494 6.26133 42.0012 4.86739 40.6072 3.51914L40.5463 3.45821C39.7008 2.6127 38.1469 2.55176 37.3166 3.45821C36.4787 4.37227 36.4102 5.78907 37.3166 6.68789L40.7063 10.0775L48.7957 18.167L58.6219 27.9932L67.0693 36.4406C68.4404 37.8117 69.7811 39.2133 71.1826 40.5539L71.2436 40.6149V37.3852L67.8539 40.7748L59.7645 48.8643L49.9383 58.6904L41.4908 67.1379C40.1197 68.509 38.7258 69.8572 37.3775 71.2512L37.3166 71.3121C36.4711 72.1576 36.4102 73.7115 37.3166 74.5418C38.2231 75.3797 39.6398 75.4483 40.5463 74.5418Z" fill="#130E5B"/>
<path d="M72.8736 36.7148H7.8838C7.00783 36.7148 6.12423 36.7072 5.24826 36.7148H5.134C3.9381 36.7148 2.79552 37.766 2.84884 39C2.90216 40.2416 3.85431 41.2851 5.134 41.2851H70.1238C70.9998 41.2851 71.8834 41.2927 72.7594 41.2851H72.8736C74.0695 41.2851 75.2121 40.234 75.1588 39C75.0979 37.7584 74.1533 36.7148 72.8736 36.7148Z" fill="#130E5B"/>
</svg>
