<svg width="78" height="78" viewBox="0 0 78 78" fill="none" xmlns="http://www.w3.org/2000/svg">
<path d="M3.4582 40.5463L6.84784 43.9359L14.9373 52.0254L24.7635 61.8516L33.2109 70.299C34.582 71.6701 35.9303 73.0641 37.3242 74.4123L37.3851 74.4732C38.2611 75.3492 39.7389 75.3492 40.6148 74.4732L44.0045 71.0836L52.0939 62.9941L61.9201 53.168L70.3676 44.7205C71.7387 43.3494 73.1326 42.0012 74.4809 40.6072L74.5418 40.5463C75.3873 39.7008 75.4482 38.1469 74.5418 37.3166C73.6277 36.4787 72.2109 36.4102 71.3121 37.3166L67.9225 40.7063L59.833 48.7957L50.0068 58.6219L41.5594 67.0693C40.1883 68.4404 38.7867 69.7811 37.4461 71.1826L37.3851 71.2436L40.6148 71.2436L37.2252 67.8539L29.1357 59.7645L19.3096 49.9383L10.8621 41.4908C9.491 40.1197 8.14276 38.7258 6.74882 37.3775L6.68788 37.3166C5.84237 36.4711 4.28847 36.4102 3.4582 37.3166C2.6203 38.223 2.55175 39.6398 3.4582 40.5463Z" fill="#130E5B"/>
<path d="M41.2852 72.8735L41.2852 7.88368C41.2852 7.0077 41.2928 6.12411 41.2852 5.24813L41.2852 5.13388C41.2852 3.93798 40.234 2.7954 39 2.84872C37.7584 2.90204 36.7149 3.85419 36.7149 5.13388L36.7149 70.1237C36.7149 70.9997 36.7073 71.8833 36.7149 72.7593L36.7149 72.8735C36.7149 74.0694 37.766 75.212 39 75.1587C40.2416 75.0977 41.2852 74.1532 41.2852 72.8735Z" fill="#130E5B"/>
</svg>
