<svg width="78" height="78" viewBox="0 0 78 78" fill="none" xmlns="http://www.w3.org/2000/svg">
<path d="M40.546 74.5418L43.9357 71.1522L52.0252 63.0627L61.8513 53.2365L70.2988 44.7891C71.6699 43.418 73.0638 42.0697 74.4121 40.6758L74.473 40.6149C75.349 39.7389 75.349 38.2611 74.473 37.3852L71.0834 33.9955L62.9939 25.9061L53.1677 16.0799L44.7203 7.63243C43.3492 6.26133 42.0009 4.86739 40.607 3.51914L40.546 3.45821C39.7005 2.6127 38.1466 2.55176 37.3164 3.45821C36.4785 4.37227 36.4099 5.78907 37.3164 6.68789L40.706 10.0775L48.7955 18.167L58.6216 27.9932L67.0691 36.4406C68.4402 37.8117 69.7808 39.2133 71.1824 40.5539L71.2433 40.6149V37.3852L67.8537 40.7748L59.7642 48.8643L49.938 58.6904L41.4906 67.1379C40.1195 68.509 38.7255 69.8572 37.3773 71.2512L37.3164 71.3121C36.4709 72.1576 36.4099 73.7115 37.3164 74.5418C38.2228 75.3797 39.6396 75.4483 40.546 74.5418Z" fill="#1E1E1E"/>
<path d="M72.8738 36.7148H7.88392C7.00795 36.7148 6.12435 36.7072 5.24838 36.7148H5.13412C3.93822 36.7148 2.79564 37.766 2.84896 39C2.90228 40.2416 3.85443 41.2851 5.13412 41.2851H70.124C70.9999 41.2851 71.8835 41.2927 72.7595 41.2851H72.8738C74.0697 41.2851 75.2122 40.234 75.1589 39C75.098 37.7584 74.1535 36.7148 72.8738 36.7148Z" fill="#1E1E1E"/>
</svg>
