<svg width="24" height="24" viewBox="0 0 24 24" fill="none" xmlns="http://www.w3.org/2000/svg">
<g clip-path="url(#clip0_1_624)">
<path fill-rule="evenodd" clip-rule="evenodd" d="M12.0038 0.997986C5.93991 0.997986 0.995972 5.93492 0.995972 11.9978C0.995972 18.0608 5.94091 23.0037 12.0038 23.0037C18.0668 23.0037 23.0017 18.0608 23.0017 11.9978C23.0017 5.93492 18.0668 0.997986 12.0038 0.997986ZM12.0038 2.99796C13.1862 2.99598 14.3573 3.22744 15.45 3.67905C16.5427 4.13066 17.5355 4.79354 18.3714 5.62968C19.2074 6.46582 19.87 7.45876 20.3214 8.55155C20.7728 9.64435 21.004 10.8155 21.0017 11.9978C21.0041 13.1805 20.773 14.352 20.3218 15.4452C19.8705 16.5384 19.208 17.5318 18.3721 18.3684C17.5362 19.2051 16.5434 19.8685 15.4506 20.3207C14.3578 20.773 13.1865 21.0051 12.0038 21.0037C10.8207 21.0052 9.64882 20.7732 8.55541 20.3212C7.462 19.8691 6.4685 19.2059 5.63178 18.3693C4.79505 17.5328 4.13155 16.5394 3.67926 15.4461C3.22696 14.3528 2.99476 13.181 2.99595 11.9978C2.99595 7.01591 7.0219 2.99796 12.0038 2.99796ZM11.9878 4.98394C11.8557 4.98523 11.725 5.01272 11.6036 5.06481C11.4821 5.1169 11.3721 5.19256 11.2801 5.28741C11.188 5.38226 11.1157 5.49442 11.0672 5.61741C11.0188 5.7404 10.9952 5.87177 10.9978 6.00392V11.9978C10.9984 12.1294 11.0249 12.2596 11.0759 12.3809C11.1268 12.5023 11.2013 12.6123 11.2948 12.7048L15.2948 16.7068C15.3873 16.802 15.4979 16.8778 15.62 16.9299C15.7422 16.9819 15.8734 17.0091 16.0062 17.0099C16.139 17.0106 16.2705 16.9849 16.3933 16.9343C16.516 16.8837 16.6274 16.8091 16.721 16.715C16.8146 16.6208 16.8886 16.509 16.9385 16.386C16.9884 16.263 17.0134 16.1312 17.0119 15.9985C17.0104 15.8657 16.9824 15.7346 16.9297 15.6128C16.877 15.4909 16.8005 15.3808 16.7048 15.2888L12.9998 11.5839V6.00392C13.0025 5.86991 12.9782 5.73673 12.9284 5.61229C12.8786 5.48785 12.8043 5.37469 12.7099 5.27954C12.6155 5.18439 12.5029 5.10919 12.3789 5.05841C12.2548 5.00763 12.1219 4.9823 11.9878 4.98394Z" fill="#1E1E1E"/>
</g>
<defs>
<clipPath id="clip0_1_624">
<rect width="24" height="24" fill="white"/>
</clipPath>
</defs>
</svg>
