<svg width="22" height="22" viewBox="0 0 22 22" fill="none" xmlns="http://www.w3.org/2000/svg">
<g clip-path="url(#clip0_1_628)">
<path fill-rule="evenodd" clip-rule="evenodd" d="M11.0035 0.914795C5.44491 0.914795 0.912964 5.44032 0.912964 10.998C0.912964 16.5557 5.44582 21.0867 11.0035 21.0867C16.5612 21.0867 21.0849 16.5557 21.0849 10.998C21.0849 5.44032 16.5612 0.914795 11.0035 0.914795ZM11.0035 2.74811C12.0873 2.74629 13.1608 2.95846 14.1625 3.37244C15.1641 3.78641 16.0742 4.39406 16.8405 5.16052C17.6067 5.92697 18.2142 6.83717 18.6279 7.8389C19.0417 8.84063 19.2536 9.91419 19.2516 10.998C19.2537 12.0821 19.0419 13.156 18.6283 14.1581C18.2146 15.1602 17.6073 16.0708 16.8411 16.8377C16.0748 17.6046 15.1647 18.2128 14.163 18.6273C13.1613 19.0418 12.0876 19.2546 11.0035 19.2534C9.91893 19.2547 8.84475 19.0421 7.84245 18.6277C6.84016 18.2134 5.92945 17.6053 5.16245 16.8385C4.39546 16.0717 3.78725 15.1611 3.37264 14.1589C2.95804 13.1567 2.74519 12.0826 2.74627 10.998C2.74627 6.43123 6.43673 2.74811 11.0035 2.74811ZM10.9888 4.56858C10.8677 4.56977 10.748 4.59497 10.6366 4.64272C10.5252 4.69046 10.4244 4.75982 10.34 4.84677C10.2557 4.93371 10.1893 5.03653 10.1449 5.14927C10.1005 5.262 10.0789 5.38243 10.0813 5.50357V10.998C10.0819 11.1186 10.1062 11.238 10.1529 11.3492C10.1996 11.4604 10.2678 11.5613 10.3536 11.6461L14.0202 15.3145C14.105 15.4018 14.2064 15.4713 14.3183 15.519C14.4303 15.5667 14.5506 15.5916 14.6723 15.5923C14.794 15.593 14.9147 15.5695 15.0272 15.5231C15.1397 15.4767 15.2418 15.4083 15.3276 15.322C15.4134 15.2357 15.4812 15.1332 15.527 15.0205C15.5727 14.9077 15.5956 14.7869 15.5942 14.6653C15.5928 14.5436 15.5672 14.4234 15.5189 14.3117C15.4705 14.2 15.4005 14.099 15.3127 14.0147L11.9165 10.6185V5.50357C11.919 5.38073 11.8967 5.25864 11.8511 5.14457C11.8054 5.0305 11.7373 4.92677 11.6507 4.83955C11.5642 4.75233 11.461 4.6834 11.3473 4.63685C11.2336 4.5903 11.1117 4.56708 10.9888 4.56858Z" fill="#1E1E1E"/>
</g>
<defs>
<clipPath id="clip0_1_628">
<rect width="22" height="22" fill="white"/>
</clipPath>
</defs>
</svg>
