<svg width="22" height="22" viewBox="0 0 22 22" fill="none" xmlns="http://www.w3.org/2000/svg">
<g clip-path="url(#clip0_1_632)">
<path fill-rule="evenodd" clip-rule="evenodd" d="M11.0035 0.914825C5.44491 0.914825 0.912964 5.44035 0.912964 10.998C0.912964 16.5557 5.44582 21.0867 11.0035 21.0867C16.5612 21.0867 21.0849 16.5557 21.0849 10.998C21.0849 5.44035 16.5612 0.914825 11.0035 0.914825ZM11.0035 2.74814C12.0873 2.74632 13.1608 2.95849 14.1625 3.37247C15.1641 3.78644 16.0742 4.39409 16.8405 5.16055C17.6067 5.927 18.2142 6.8372 18.6279 7.83893C19.0417 8.84066 19.2536 9.91422 19.2516 10.998C19.2537 12.0821 19.0419 13.156 18.6283 14.1581C18.2146 15.1602 17.6073 16.0708 16.8411 16.8377C16.0748 17.6046 15.1647 18.2128 14.163 18.6273C13.1613 19.0419 12.0876 19.2546 11.0035 19.2534C9.91893 19.2548 8.84475 19.0421 7.84245 18.6278C6.84016 18.2134 5.92945 17.6054 5.16245 16.8385C4.39546 16.0717 3.78725 15.1611 3.37264 14.1589C2.95804 13.1567 2.74519 12.0826 2.74627 10.998C2.74627 6.43126 6.43673 2.74814 11.0035 2.74814ZM10.9888 4.56861C10.8677 4.5698 10.748 4.595 10.6366 4.64275C10.5252 4.6905 10.4244 4.75985 10.34 4.8468C10.2557 4.93374 10.1893 5.03656 10.1449 5.1493C10.1005 5.26204 10.0789 5.38246 10.0813 5.5036V10.998C10.0819 11.1187 10.1062 11.238 10.1529 11.3492C10.1996 11.4604 10.2678 11.5613 10.3536 11.6461L14.0202 15.3146C14.105 15.4018 14.2064 15.4714 14.3183 15.5191C14.4303 15.5668 14.5506 15.5917 14.6723 15.5924C14.794 15.5931 14.9147 15.5695 15.0272 15.5231C15.1397 15.4767 15.2418 15.4084 15.3276 15.3221C15.4134 15.2358 15.4812 15.1333 15.527 15.0205C15.5727 14.9077 15.5956 14.787 15.5942 14.6653C15.5928 14.5436 15.5672 14.4234 15.5189 14.3117C15.4705 14.2 15.4005 14.0991 15.3127 14.0147L11.9165 10.6185V5.5036C11.919 5.38076 11.8967 5.25867 11.8511 5.1446C11.8054 5.03053 11.7373 4.92681 11.6507 4.83958C11.5642 4.75236 11.461 4.68343 11.3473 4.63688C11.2336 4.59033 11.1117 4.56711 10.9888 4.56861Z" fill="#1E1E1E"/>
</g>
<defs>
<clipPath id="clip0_1_632">
<rect width="22" height="22" fill="white"/>
</clipPath>
</defs>
</svg>
