<svg width="30" height="31" viewBox="0 0 30 31" fill="none" xmlns="http://www.w3.org/2000/svg">
<path d="M16.4954 13.8228H16.5184V13.7867L16.4954 13.8228ZM16.4954 13.8228H16.5184V13.7867L16.4954 13.8228ZM16.4954 13.8228H16.5184V13.7867L16.4954 13.8228ZM16.4954 13.8228H16.5184V13.7867L16.4954 13.8228ZM16.4954 13.8228H16.5184V13.7867L16.4954 13.8228ZM16.4954 13.8228H16.5184V13.7867L16.4954 13.8228ZM16.4954 13.8228H16.5184V13.7867L16.4954 13.8228ZM16.4954 13.8228H16.5184V13.7867L16.4954 13.8228ZM16.4954 13.8228H16.5184V13.7867L16.4954 13.8228ZM16.4954 13.8228H16.5184V13.7867L16.4954 13.8228ZM16.4954 13.8228H16.5184V13.7867L16.4954 13.8228ZM16.4954 13.8228H16.5184V13.7867L16.4954 13.8228ZM16.4954 13.8228H16.5184V13.7867L16.4954 13.8228ZM16.4954 13.8228H16.5184V13.7867L16.4954 13.8228ZM16.4954 13.8228H16.5184V13.7867L16.4954 13.8228ZM16.4954 13.8228H16.5184V13.7867L16.4954 13.8228ZM15.001 0.553711C12.0343 0.553711 9.13416 1.43345 6.66743 3.08167C4.20069 4.72989 2.2781 7.07257 1.14279 9.81346C0.00747565 12.5543 -0.289574 15.5703 0.289204 18.4801C0.867982 21.3898 2.29659 24.0625 4.39438 26.1603C6.49217 28.2581 9.16491 29.6867 12.0746 30.2655C14.9843 30.8443 18.0003 30.5472 20.7412 29.4119C23.4821 28.2766 25.8248 26.354 27.473 23.8873C29.1212 21.4205 30.001 18.5204 30.001 15.5537C29.9966 11.5768 28.4149 7.76401 25.6028 4.95191C22.7907 2.13981 18.9779 0.558058 15.001 0.553711ZM11.2502 22.3065C11.2493 22.373 11.2223 22.4365 11.1749 22.4832C11.1276 22.5299 11.0638 22.5561 10.9973 22.5561H8.10696C8.04076 22.5561 7.97727 22.5298 7.93045 22.483C7.88364 22.4362 7.85734 22.3727 7.85734 22.3065V12.5944C7.85691 12.5614 7.86304 12.5286 7.87539 12.4979C7.88774 12.4672 7.90606 12.4393 7.92928 12.4158C7.9525 12.3923 7.98017 12.3736 8.01067 12.3608C8.04117 12.3481 8.0739 12.3415 8.10696 12.3415H10.9973C11.0305 12.3415 11.0634 12.3481 11.094 12.3608C11.1247 12.3735 11.1526 12.3921 11.1761 12.4156C11.1996 12.4391 11.2182 12.467 11.2309 12.4977C11.2436 12.5283 11.2502 12.5612 11.2502 12.5944V22.3065ZM9.45029 11.0442C9.09106 11.0442 8.7399 10.9377 8.44121 10.7381C8.14253 10.5385 7.90973 10.2548 7.77226 9.92296C7.63479 9.59107 7.59882 9.22588 7.6689 8.87355C7.73898 8.52123 7.91197 8.19759 8.16598 7.94358C8.41999 7.68957 8.74363 7.51658 9.09595 7.4465C9.44828 7.37642 9.81347 7.41239 10.1454 7.54986C10.4772 7.68733 10.7609 7.92013 10.9605 8.21882C11.1601 8.5175 11.2666 8.86867 11.2666 9.22789C11.267 9.46653 11.2203 9.70291 11.1292 9.92347C11.0381 10.144 10.9043 10.3444 10.7356 10.5132C10.5668 10.6819 10.3664 10.8157 10.1459 10.9068C9.92531 10.9979 9.68893 11.0446 9.45029 11.0442ZM23.4814 22.3065C23.4805 22.373 23.4535 22.4365 23.4062 22.4832C23.3588 22.5299 23.295 22.5561 23.2285 22.5561H20.3382C20.3054 22.5561 20.2729 22.5497 20.2427 22.5371C20.2124 22.5246 20.1849 22.5062 20.1617 22.483C20.1385 22.4598 20.1201 22.4323 20.1076 22.402C20.095 22.3717 20.0886 22.3393 20.0886 22.3065V17.0875C20.0886 15.7146 19.5992 14.7884 18.3708 14.7884C17.988 14.7906 17.6153 14.911 17.3037 15.1333C16.992 15.3556 16.7567 15.6687 16.6301 16.0299C16.5435 16.2969 16.5056 16.5773 16.5184 16.8576V22.3065C16.5184 22.3736 16.4917 22.4379 16.4443 22.4853C16.3969 22.5328 16.3326 22.5594 16.2655 22.5594H13.3752C13.3421 22.5594 13.3094 22.5528 13.2789 22.5401C13.2484 22.5273 13.2207 22.5087 13.1975 22.4851C13.1743 22.4616 13.156 22.4337 13.1436 22.403C13.1313 22.3724 13.1251 22.3396 13.1256 22.3065C13.1256 20.9205 13.1617 14.1907 13.1256 12.6076C13.1251 12.5745 13.1313 12.5417 13.1436 12.511C13.156 12.4804 13.1743 12.4525 13.1975 12.4289C13.2207 12.4054 13.2484 12.3867 13.2789 12.374C13.3094 12.3612 13.3421 12.3547 13.3752 12.3547H16.2589C16.2923 12.3542 16.3253 12.3605 16.3562 12.373C16.3871 12.3856 16.4152 12.4042 16.4387 12.4278C16.4623 12.4513 16.4809 12.4794 16.4935 12.5103C16.506 12.5412 16.5123 12.5742 16.5118 12.6076V13.7998C16.819 13.2665 17.2665 12.8275 17.8055 12.5305C18.3446 12.2335 18.9547 12.0897 19.5696 12.1149C21.7998 12.1149 23.4748 13.5732 23.4748 16.7131L23.4814 22.3065ZM16.5184 13.8327V13.7965L16.4954 13.8327H16.5184ZM16.4954 13.8327H16.5184V13.7965L16.4954 13.8327ZM16.4954 13.8327H16.5184V13.7965L16.4954 13.8327ZM16.4954 13.8327H16.5184V13.7965L16.4954 13.8327ZM16.4954 13.8327H16.5184V13.7965L16.4954 13.8327ZM16.4954 13.8327H16.5184V13.7965L16.4954 13.8327ZM16.4954 13.8327H16.5184V13.7965L16.4954 13.8327ZM16.4954 13.8327H16.5184V13.7965L16.4954 13.8327ZM16.4954 13.8327H16.5184V13.7965L16.4954 13.8327ZM16.4954 13.8327H16.5184V13.7965L16.4954 13.8327ZM16.4954 13.8327H16.5184V13.7965L16.4954 13.8327ZM16.4954 13.8327H16.5184V13.7965L16.4954 13.8327ZM16.4954 13.8327H16.5184V13.7965L16.4954 13.8327ZM16.4954 13.8327H16.5184V13.7965L16.4954 13.8327ZM16.4954 13.8327H16.5184V13.7965L16.4954 13.8327Z" fill="white"/>
</svg>
